<svg xmlns="http://www.w3.org/2000/svg" width="580" height="151.783" viewBox="0 0 580 151.783">
  <g id="Group_478" data-name="Group 478" transform="translate(4177 8768.004)">
    <path id="Path_314" data-name="Path 314" d="M35,39.383a24.35,24.35,0,0,1,3.225,3.283,23.223,23.223,0,0,1,2.722,4.126,25.364,25.364,0,0,1,1.92,4.875,22.951,22.951,0,0,1,.848,5.624,19.155,19.155,0,0,1-.753,6.05q-.841,2.859-1.592,5.767a41.83,41.83,0,0,1-6.144,9.145A37.358,37.358,0,0,1,28.2,84.438a26.209,26.209,0,0,1-6.943,3.382,14.39,14.39,0,0,1-5.673.7,9.634,9.634,0,0,1-3.7-1.265,13.632,13.632,0,0,1-2.951-2.39A15.069,15.069,0,0,1,6.673,81.72a20.775,20.775,0,0,1-1.5-3.516,10.4,10.4,0,0,0-.09-1.453,3.424,3.424,0,0,1,.09-1.359,2.968,2.968,0,0,1-1.87-.049A4.435,4.435,0,0,1,1.61,74.266,5.656,5.656,0,0,1,.394,72.342a5.388,5.388,0,0,1-.377-2.485,10.685,10.685,0,0,1,.7-3.045q.612-1.641,1.072-3.144a131.372,131.372,0,0,1,8.539-19.549q5.059-9.425,10.127-17.491.188-2.153.323-4.409c.094-1.5.108-3.059.049-4.687a4.941,4.941,0,0,0-.516-1.592,1.514,1.514,0,0,1-.04-1.5,1.111,1.111,0,0,1,.794-.561,3.353,3.353,0,0,1,1.121,0,4.1,4.1,0,0,1,1.126.332,1.571,1.571,0,0,1,.7.511q.283,1.218.61,2.39a7.071,7.071,0,0,1,.139,2.767q1.776-1.964,4.225-4.642t5.149-5.108A36.727,36.727,0,0,1,39.681,6a10.585,10.585,0,0,1,5.436-1.686,4.516,4.516,0,0,1,2.44.422q.942.518,1.875.987a11.054,11.054,0,0,1,2.346,4.5,29.127,29.127,0,0,1-1.83,9.566,50.793,50.793,0,0,1-3.794,7.786,60.484,60.484,0,0,1-4.745,6.75A18.577,18.577,0,0,1,35,39.383M2.735,71.921a12.018,12.018,0,0,0,3.189-3.328c.87-1.341,1.686-2.736,2.44-4.171a118.133,118.133,0,0,0,6.189-14.114A102.445,102.445,0,0,0,18.858,34.6a.209.209,0,0,0,.148-.045c.031-.031-.018-.049-.148-.049,0-.121-.022-.152-.09-.094a9.286,9.286,0,0,1-1.076,1.785c-.727,1.063-1.641,2.471-2.767,4.22S12.584,44.227,11.27,46.6,8.7,51.542,7.516,54.3a75.328,75.328,0,0,0-3.1,8.624,46.112,46.112,0,0,0-1.682,9M16.8,59.076a44.357,44.357,0,0,0-3.57,4.875A33.724,33.724,0,0,0,10.1,70.145a23.25,23.25,0,0,0-1.507,6.839,12.448,12.448,0,0,0,1.458,6.75,7.2,7.2,0,0,0,2.812,1.036,14.878,14.878,0,0,0,3.749.094,24.245,24.245,0,0,0,8.772-3.7A51.325,51.325,0,0,0,32.555,75.2a24.408,24.408,0,0,0,3.749-4.92,27.231,27.231,0,0,0,2.673-6.194,34.094,34.094,0,0,0,1.269-7.126,34.385,34.385,0,0,0-.381-7.925c-.561-1.188-1.121-2.355-1.677-3.512a12.8,12.8,0,0,0-2.068-3.05,6.068,6.068,0,0,0-1.453-1.032c-.6-.314-1.188-.641-1.78-.987a6.1,6.1,0,0,1-1.5-1.171,1.932,1.932,0,0,1-.52-1.592,1.65,1.65,0,0,1,1.224-1.641,6.956,6.956,0,0,0,2.054-.987,27.1,27.1,0,0,0,6.615-6.655,44.79,44.79,0,0,0,4.92-8.629,29.192,29.192,0,0,0,2.3-8.158c.287-2.5-.108-4.283-1.171-5.341a11.171,11.171,0,0,0-6.144,2.247,44.858,44.858,0,0,0-6.521,5.436,64.986,64.986,0,0,0-5.808,6.66,58.543,58.543,0,0,0-4.027,5.911,124.544,124.544,0,0,1-3,14.719q-1.877,6.943-4.22,13.41c.937-.623,1.955-1.359,3.045-2.2a29.7,29.7,0,0,1,3.431-2.3,41.3,41.3,0,0,0,3.933-1.646,7.343,7.343,0,0,1,4.4-.61,21.385,21.385,0,0,0-8.62,4.458,55.879,55.879,0,0,0-6.472,6.7" transform="translate(-4177 -8753.021)" fill="#c4a258"/>
    <path id="Path_315" data-name="Path 315" d="M15.282,12.895a2.938,2.938,0,0,1,1.265.655,10.251,10.251,0,0,1,.982,1.032,22.349,22.349,0,0,1-.937,4.453c-.435,1.345-.9,2.66-1.408,3.938s-.969,2.6-1.4,3.942a15.914,15.914,0,0,0-.753,4.265,7.631,7.631,0,0,0,2.489-.8,17.051,17.051,0,0,0,2.2-1.359c.686-.5,1.377-1.032,2.063-1.592a21.922,21.922,0,0,1,2.059-1.5c1.251-1.184,2.5-2.346,3.758-3.467q1.863-1.689,3.933-3.283a5.273,5.273,0,0,1,1.691,1.171c.431.466.875.951,1.31,1.453a10.682,10.682,0,0,0-.283,2.534v2.812a2.284,2.284,0,0,0,1.31.422,10.121,10.121,0,0,0,1.691-.049,14.989,14.989,0,0,0,4.74-2.059,31.979,31.979,0,0,0,3.933-3.1c1.224-1.121,2.377-2.3,3.471-3.516a34.558,34.558,0,0,1,3.422-3.328,9.713,9.713,0,0,1-1.686,6.005A26.044,26.044,0,0,1,45,26.116a50.206,50.206,0,0,1-4.077,3.328,11.213,11.213,0,0,1-4.548,2.018,5.491,5.491,0,0,1-2.906-.188,5.124,5.124,0,0,1-2.063-1.453,7.213,7.213,0,0,1-1.314-2.3,17.886,17.886,0,0,1-.744-2.812,17.406,17.406,0,0,0-2.583,1.875c-.78.691-1.565,1.395-2.341,2.112s-1.583,1.453-2.395,2.2a21.123,21.123,0,0,1-2.624,2.068,16.676,16.676,0,0,1-1.5.933,8.664,8.664,0,0,1-1.78.753,4.889,4.889,0,0,1-1.879.188,3.489,3.489,0,0,1-1.78-.753,6.02,6.02,0,0,1-1.875-3.467,11.215,11.215,0,0,1,0-4.974,14.7,14.7,0,0,1,.888-3c.471-1.184.866-2.278,1.175-3.283.314-1.058.659-2.233,1.032-3.516a7.473,7.473,0,0,1,1.22-2.673Z" transform="translate(-4141.065 -8723.065)" fill="#c4a258"/>
    <path id="Path_316" data-name="Path 316" d="M60.962,58.271a15.349,15.349,0,0,1-2.718,5.907,24.7,24.7,0,0,1-4.122,4.5,17.5,17.5,0,0,1-2.251,1.686,30.692,30.692,0,0,1-2.816,1.592,18.128,18.128,0,0,1-3.095,1.224,11.047,11.047,0,0,1-3.09.466A6.921,6.921,0,0,1,39.4,73a8.538,8.538,0,0,1-2.579-1.969,11.957,11.957,0,0,1-1.83-2.767c-.5-1.032-.969-2.081-1.4-3.139a41.289,41.289,0,0,1-2.346,3.794,19.661,19.661,0,0,1-3.422,3.848,8.881,8.881,0,0,1-4.175,2.059,5.4,5.4,0,0,1-4.592-1.637,9.6,9.6,0,0,1-.332-1.269,3.649,3.649,0,0,0-.422-1.175,51.728,51.728,0,0,1,.937-6,18.5,18.5,0,0,1,1.978-5.292,9.076,9.076,0,0,1,3.462-3.521,8.915,8.915,0,0,1,5.628-.749,8.124,8.124,0,0,1-.09,2.108,11.251,11.251,0,0,1-.475,1.736c-.188.5-.4,1.018-.659,1.552a2.013,2.013,0,0,1-1.305,1.076,2.75,2.75,0,0,1-.283-1.969,4.467,4.467,0,0,0-.094-2.063,1.5,1.5,0,0,0-1.224,1.076,11.484,11.484,0,0,1-.65,1.641Q24.4,62.77,23.361,65.4A16.365,16.365,0,0,0,22.334,71.4a12.3,12.3,0,0,0,3-2.112,25.586,25.586,0,0,0,2.44-2.718c.749-.973,1.467-1.987,2.153-3.05s1.408-2.094,2.153-3.1A80.451,80.451,0,0,1,33.627,42.66q1.742-8.4,3.987-16.271A144.62,144.62,0,0,1,45.122,5.947,29.147,29.147,0,0,1,46.763,2.9,5.618,5.618,0,0,1,49.243.7a4.688,4.688,0,0,1,2.529.422,5.255,5.255,0,0,1,1.6,1.359A13.322,13.322,0,0,1,53.7,7.965a51.691,51.691,0,0,1-1.175,5.485q-1.493,5.725-3.041,11.109T46.333,35.013Q44,42.238,41.229,48.755T35.65,61.37q.464,1.87.888,3.749a16.666,16.666,0,0,0,1.171,3.467,3.8,3.8,0,0,0,2.112,1.458,7,7,0,0,0,2.677.139,12.846,12.846,0,0,0,2.758-.7q1.359-.518,2.489-1.081a31.472,31.472,0,0,0,7.167-4.826q3.343-2.96,6.05-5.3M36.3,49.925c-.13.063-.157.112-.09.139s.09-.009.09-.139l.283-.372a39.186,39.186,0,0,0,2.3-5.158q.989-2.718,2.009-5.44,1.985-5.348,3.9-10.93a115.316,115.316,0,0,0,3.332-11.674c.242-.991.5-1.964.749-2.9s.5-1.937.749-3a27.742,27.742,0,0,0,.8-2.951,7.661,7.661,0,0,0,.045-3.045,3.852,3.852,0,0,0-1.875,1.924c-.372.839-.749,1.7-1.126,2.574a114.036,114.036,0,0,0-5.023,13.41q-2.1,6.943-3.978,14.818c-.5,2.059-.924,4.189-1.269,6.373s-.637,4.319-.888,6.377m24.658,8.346c0-.126.036-.17.094-.139s.036.076-.094.139" transform="translate(-4113.234 -8765.629)" fill="#c4a258"/>
    <path id="Path_317" data-name="Path 317" d="M31.444,12.895a2.913,2.913,0,0,1,1.265.655,11.44,11.44,0,0,1,.991,1.032,22.656,22.656,0,0,1-.946,4.453q-.653,2.018-1.4,3.938t-1.4,3.942a15.914,15.914,0,0,0-.753,4.265,7.538,7.538,0,0,0,2.485-.8,16.232,16.232,0,0,0,2.207-1.359c.686-.5,1.377-1.032,2.063-1.592a21.4,21.4,0,0,1,2.063-1.5c1.247-1.184,2.494-2.346,3.749-3.467s2.561-2.22,3.938-3.283a5.323,5.323,0,0,1,1.691,1.171c.435.466.875.951,1.31,1.453a10.682,10.682,0,0,0-.283,2.534v2.812a2.3,2.3,0,0,0,1.314.422,10.081,10.081,0,0,0,1.686-.049,14.989,14.989,0,0,0,4.74-2.059,32.368,32.368,0,0,0,3.938-3.1c1.211-1.121,2.372-2.3,3.467-3.516a34.114,34.114,0,0,1,3.426-3.328A9.774,9.774,0,0,1,65.3,21.524a26.169,26.169,0,0,1-4.122,4.592Q59.2,27.9,57.093,29.444a11.293,11.293,0,0,1-4.548,2.018,5.483,5.483,0,0,1-2.906-.188,5.108,5.108,0,0,1-2.068-1.453,7.11,7.11,0,0,1-1.305-2.3,16.959,16.959,0,0,1-.753-2.812,17.6,17.6,0,0,0-2.579,1.875c-.785.691-1.565,1.395-2.355,2.112s-1.57,1.453-2.386,2.2a21.124,21.124,0,0,1-2.624,2.068,16.067,16.067,0,0,1-1.5.933,8.561,8.561,0,0,1-1.78.753,4.867,4.867,0,0,1-1.875.188,3.428,3.428,0,0,1-1.776-.753,5.951,5.951,0,0,1-1.884-3.467,11.215,11.215,0,0,1,0-4.974,15.052,15.052,0,0,1,.892-3c.475-1.184.861-2.278,1.175-3.283.309-1.058.655-2.233,1.031-3.516a7.561,7.561,0,0,1,1.215-2.673Z" transform="translate(-4084.744 -8723.065)" fill="#c4a258"/>
    <path id="Path_318" data-name="Path 318" d="M72.506,45.479c1.749.058,3.453.2,5.113.417a20.741,20.741,0,0,1,4.507,1.081,11.22,11.22,0,0,1,3.512,2.063,8.942,8.942,0,0,1,2.337,3.283c-.188.121-.359.027-.507-.283a6.958,6.958,0,0,0-.431-.749,3.019,3.019,0,0,0-.6-.753,2.538,2.538,0,0,1-.516-.556.623.623,0,0,1-.57-.381,16.024,16.024,0,0,0-5.48-2.108,19.286,19.286,0,0,0-6.992-.139,71.185,71.185,0,0,0-2.525,11.2A86.712,86.712,0,0,1,68,69.764a101.452,101.452,0,0,1-3.422,10.315,81.649,81.649,0,0,1-4.265,9.185,64.125,64.125,0,0,1-7.5,9.288,34.564,34.564,0,0,1-9.754,6.938,13.174,13.174,0,0,1-2.722.749,18.654,18.654,0,0,1-3.278.283,15.857,15.857,0,0,1-3.238-.327,7.938,7.938,0,0,1-2.579-.987,29.447,29.447,0,0,1-4.122-4.22,14.367,14.367,0,0,1-1.691-5.014,25.74,25.74,0,0,1-.188-5.35,30.824,30.824,0,0,1,.839-5.247c.444-1.718.919-3.3,1.413-4.736a51.546,51.546,0,0,1,4.22-8.53,40.825,40.825,0,0,1,5.346-6.943,65.493,65.493,0,0,1,6.377-6.095,73.554,73.554,0,0,1,7.221-5.346A55.947,55.947,0,0,1,59,49.318a49.545,49.545,0,0,1,9.378-2.906q.659-3.747,1.126-7.97a30.355,30.355,0,0,0-.184-8.252.386.386,0,0,0-.054-.422,1.146,1.146,0,0,0-.323-.233,1.262,1.262,0,0,1-.332-.233.387.387,0,0,1-.045-.426,1.934,1.934,0,0,1,.614-1.5,2.74,2.74,0,0,1,1.449-.7,3.457,3.457,0,0,1,1.691.144,2.112,2.112,0,0,1,1.22.933A24.647,24.647,0,0,1,73.87,32.2a44.5,44.5,0,0,1-.327,4.458q-.283,2.247-.614,4.458a42.874,42.874,0,0,0-.422,4.359m-4.875,2.9A61.885,61.885,0,0,0,52.863,55.6,74.945,74.945,0,0,0,40.911,65.634a54.967,54.967,0,0,0-4.835,6.189A68.283,68.283,0,0,0,32,78.765q-1.5,3.841-2.812,8.158a25.366,25.366,0,0,0-.753,9.938,13.4,13.4,0,0,0,1.319,3.565,5.21,5.21,0,0,0,2.525,2.247c.13,0,.188.031.188.094a6.007,6.007,0,0,0,1.736.144c.659-.031,1.3-.049,1.928-.049a26.639,26.639,0,0,0,7.682-2.955,30.938,30.938,0,0,0,6.234-4.731A38.263,38.263,0,0,0,55.02,89.17a59,59,0,0,0,3.888-6.655,81,81,0,0,0,5.723-15.944q2.159-8.624,3.565-18L68,48.38c0-.126-.036-.139-.09-.049s-.157.117-.283.049M76.26,9.654a1.485,1.485,0,0,1,.511,1.4,6.2,6.2,0,0,0,.144,1.785,1.985,1.985,0,0,1-1.408,1.032,3.059,3.059,0,0,1-1.83-.188,3.292,3.292,0,0,1-1.449-1.171,1.856,1.856,0,0,1-.184-1.83,3.906,3.906,0,0,1,1.911-.7c.789-.094,1.552-.2,2.305-.327" transform="translate(-4089.236 -8734.359)" fill="#c4a258"/>
    <path id="Path_319" data-name="Path 319" d="M41.018,25.156A5.485,5.485,0,0,0,39.986,27.5c-.184.937-.4,1.875-.655,2.812a7.432,7.432,0,0,0,3.332.892,13.328,13.328,0,0,0,3.471-.377,23.22,23.22,0,0,0,3.417-1.121c1.126-.471,2.193-.924,3.189-1.363a35.233,35.233,0,0,0,4.122-2.108c1.319-.78,2.6-1.484,3.848-2.112a1.048,1.048,0,0,1-.561,1.081,6.523,6.523,0,0,0-1.121.888,5.353,5.353,0,0,1-1.04.8,2.6,2.6,0,0,0-.933.982c-.691.5-1.372,1.032-2.067,1.6a20.894,20.894,0,0,1-2.247,1.6,14.065,14.065,0,0,1-2.906,2.108,16.447,16.447,0,0,1-3.983,1.637,11.39,11.39,0,0,1-4.081.381,4.7,4.7,0,0,1-3.278-1.785,7.423,7.423,0,0,1-1.229-3.328,15.866,15.866,0,0,1,0-4.175,33.494,33.494,0,0,1,4.225-7.97,18.259,18.259,0,0,1,6.566-5.53q.182.094.229,0c.036-.067.112-.094.238-.094a6.023,6.023,0,0,1,4.265.843c1.036.749,1.39,2,1.081,3.749A24.591,24.591,0,0,1,49.6,22.528a12.425,12.425,0,0,1-6.8,3.189,2.461,2.461,0,0,1-1.785-.561m2.44-4.4a28.387,28.387,0,0,0,4.265-2.538,8.4,8.4,0,0,0,2.956-3.373,21.92,21.92,0,0,0-7.221,5.911" transform="translate(-4047.622 -8725.294)" fill="#c4a258"/>
    <path id="Path_320" data-name="Path 320" d="M51.12,16.462a8.862,8.862,0,0,0,1.256-1.076,7.162,7.162,0,0,1,1.552-1.171,4.523,4.523,0,0,1,1.78-.565,2.611,2.611,0,0,1,1.884.655,1.284,1.284,0,0,1,.6.753,6.626,6.626,0,0,0,.431,1.032,13.991,13.991,0,0,1-.238,3.516,23.262,23.262,0,0,1-.843,2.956q-.518,1.4-.987,2.812a20.658,20.658,0,0,0-.749,3,11.035,11.035,0,0,0,3.516-2.157c1.032-.937,2.041-1.893,3.045-2.861a38.865,38.865,0,0,1,3.189-2.767A11.729,11.729,0,0,1,69.5,18.619a2.728,2.728,0,0,1,1.87,1.22q.565.942,1.13,1.875a9.183,9.183,0,0,1-.1,2.207c-.13.655-.269,1.278-.422,1.875a17.084,17.084,0,0,0-.377,1.825,5.168,5.168,0,0,0,.144,2.063.826.826,0,0,0,.655.332,1.641,1.641,0,0,1,.749.233A20.22,20.22,0,0,0,80,28.562a37.15,37.15,0,0,0,5.767-3.283q2.664-1.877,5.063-3.893a49.141,49.141,0,0,1,4.826-3.615A15.468,15.468,0,0,1,92.8,23.494a24.177,24.177,0,0,1-4.4,4.175A35.511,35.511,0,0,1,83.047,30.9q-2.859,1.406-5.772,2.812a10.155,10.155,0,0,1-3.377,0,11.362,11.362,0,0,1-2.807-.839,7.267,7.267,0,0,1-2.018-3.987,20.207,20.207,0,0,1-.323-5.4,17.953,17.953,0,0,1-2.023,1.4,18.534,18.534,0,0,0-2.2,1.6,15.982,15.982,0,0,0-3.139,3.332,8.623,8.623,0,0,1-3.328,2.861,4.9,4.9,0,0,1-1.691.466,5.7,5.7,0,0,1-1.78-.094A4.376,4.376,0,0,1,52.851,30.2a12.227,12.227,0,0,1-.045-3.843,29.994,29.994,0,0,1,.843-4.032c.377-1.345.686-2.485.937-3.426A19.641,19.641,0,0,0,49.9,24.808q-1.971,3.66-3.745,7.221c-.135.44-.336,1.018-.614,1.731a8.8,8.8,0,0,1-.991,1.879,1.7,1.7,0,0,1-1.171.843c-.4.031-.758-.422-1.076-1.359a2.956,2.956,0,0,1-.327-.982c-.094-.471-.17-.834-.242-1.081a8.193,8.193,0,0,1,.946-4.736,48.73,48.73,0,0,0,2.054-4.548,45.489,45.489,0,0,0,1.552-4.453c.408-1.4.8-2.731,1.171-3.987a3.162,3.162,0,0,1-.368-1.215,1.4,1.4,0,0,1,.368-1.22c0-.251.067-.377.193-.377a2.325,2.325,0,0,1,2.48,1.175,14.527,14.527,0,0,1,.991,2.763" transform="translate(-4031.743 -8724.38)" fill="#c4a258"/>
    <path id="Path_321" data-name="Path 321" d="M87.62,30.531c2.884-2.189,5.75-4.561,8.624-7.126a98.11,98.11,0,0,1,9.006-7.126,7.589,7.589,0,0,1,1.354.466,1.453,1.453,0,0,1,.8,1.036,5.716,5.716,0,0,1-2.112,2.619,13.5,13.5,0,0,0-2.583,2.44c-.87.7-1.74,1.426-2.619,2.207s-1.749,1.547-2.628,2.3q-2.718,2.159-5.3,4.409c-1.718,1.5-3.422,3.059-5.108,4.687a136.117,136.117,0,0,1-1.081,14.347q-.888,6.842-2.2,13.782a150.816,150.816,0,0,1-4.6,18.011,60.938,60.938,0,0,1-7.4,15.284,32.818,32.818,0,0,1-2.911,3.61,16.762,16.762,0,0,1-3.839,3.095,13.5,13.5,0,0,1-4.7,1.686,11.077,11.077,0,0,1-5.341-.516,25.4,25.4,0,0,1-2.906-2.812,18.286,18.286,0,0,1-2.3-3.332,15.1,15.1,0,0,1-1.453-4.126,19.49,19.49,0,0,1-.278-5.2A25.24,25.24,0,0,1,50.3,81.308q1.964-4.359,3.754-8.3A92.11,92.11,0,0,1,60.33,61.9q3.572-5.4,7.557-10.36t8.158-9.521c2.772-3.032,5.485-5.92,8.109-8.674q.182-3.559.332-7.126c.094-2.377.256-4.718.511-7.032a11.607,11.607,0,0,0-2.2,1.691c-.722.686-1.471,1.417-2.256,2.2s-1.561,1.57-2.346,2.35a22.955,22.955,0,0,1-2.386,2.108,17.622,17.622,0,0,1-1.879,1.4,4.589,4.589,0,0,1-1.875.848,2.809,2.809,0,0,1-2.2-.709A11.716,11.716,0,0,1,68.3,27.437a8.726,8.726,0,0,1-.233-3.467,21.945,21.945,0,0,1,.7-3.234c.314-1.032.655-2.05,1.032-3.05a28.264,28.264,0,0,0,.937-3,3.064,3.064,0,0,1,2.207,1.879,6.2,6.2,0,0,1,.135,2.955,15.488,15.488,0,0,1-.933,3.234c-.44,1.063-.785,1.964-1.031,2.718a22.7,22.7,0,0,0,3.893-2.395c1.278-.964,2.579-2.041,3.888-3.234a47.69,47.69,0,0,0,3.565-3.561,16.578,16.578,0,0,1,3.467-3A1.484,1.484,0,0,1,87.2,13.09a2.008,2.008,0,0,1,1.175.937,47.694,47.694,0,0,1-.327,8.207,54.987,54.987,0,0,0-.426,8.3M63.712,64.194a56.154,56.154,0,0,0-3.9,6.66q-1.823,3.653-3.7,7.6c-.691,1.5-1.453,3.359-2.3,5.579a35.026,35.026,0,0,0-1.825,6.844,20.017,20.017,0,0,0,0,6.7,7.748,7.748,0,0,0,3.095,5.063,11.182,11.182,0,0,0,2.911.184,11.675,11.675,0,0,0,2.713-.466,25.5,25.5,0,0,0,7.364-6.189,40.277,40.277,0,0,0,5.2-8.342,66.739,66.739,0,0,0,3.66-9.8q1.5-5.207,2.722-10.647,1.406-6.472,2.529-13.315a114.679,114.679,0,0,0,1.408-14.159c0-.126-.036-.157-.1-.094q-5.247,5.907-10.315,11.768a117.982,117.982,0,0,0-9.467,12.611" transform="translate(-4009.734 -8722.605)" fill="#c4a258"/>
    <path id="Path_322" data-name="Path 322" d="M108.425,58.271a15.349,15.349,0,0,1-2.718,5.907,24.713,24.713,0,0,1-4.126,4.5,17.746,17.746,0,0,1-2.247,1.686,30.692,30.692,0,0,1-2.816,1.592,18.174,18.174,0,0,1-3.1,1.224,11.047,11.047,0,0,1-3.09.466A6.968,6.968,0,0,1,86.853,73a8.519,8.519,0,0,1-2.574-1.969,12.25,12.25,0,0,1-1.83-2.767c-.5-1.032-.973-2.081-1.4-3.139a40.486,40.486,0,0,1-2.35,3.794,19.258,19.258,0,0,1-3.426,3.848,8.832,8.832,0,0,1-4.166,2.059,5.408,5.408,0,0,1-4.6-1.637,11.237,11.237,0,0,1-.332-1.269,3.757,3.757,0,0,0-.417-1.175,49.858,49.858,0,0,1,.933-6,18.769,18.769,0,0,1,1.973-5.292,9.148,9.148,0,0,1,3.467-3.521,8.915,8.915,0,0,1,5.628-.749,8.124,8.124,0,0,1-.09,2.108A10.766,10.766,0,0,1,77.2,59.02c-.184.5-.408,1.018-.655,1.552a2.011,2.011,0,0,1-1.31,1.076,2.773,2.773,0,0,1-.283-1.969,4.413,4.413,0,0,0-.09-2.063,1.5,1.5,0,0,0-1.224,1.076,11.483,11.483,0,0,1-.655,1.641Q71.858,62.77,70.824,65.4A16.364,16.364,0,0,0,69.793,71.4a12.219,12.219,0,0,0,3-2.112,25.585,25.585,0,0,0,2.44-2.718c.749-.973,1.471-1.987,2.153-3.05s1.408-2.094,2.157-3.1A79.915,79.915,0,0,1,81.086,42.66q1.742-8.4,3.991-16.271a144.069,144.069,0,0,1,7.5-20.442A29.982,29.982,0,0,1,94.217,2.9,5.678,5.678,0,0,1,96.7.7a4.713,4.713,0,0,1,2.534.422,5.168,5.168,0,0,1,1.592,1.359,13.178,13.178,0,0,1,.332,5.489,55.211,55.211,0,0,1-1.171,5.485q-1.5,5.725-3.05,11.109T93.8,35.013q-2.334,7.225-5.1,13.742T83.108,61.37c.314,1.247.605,2.5.893,3.749a16.409,16.409,0,0,0,1.171,3.467,3.806,3.806,0,0,0,2.108,1.458,7,7,0,0,0,2.677.139,12.886,12.886,0,0,0,2.763-.7c.9-.345,1.736-.7,2.489-1.081a31.77,31.77,0,0,0,7.167-4.826q3.33-2.96,6.05-5.3M83.768,49.925c-.13.063-.161.112-.1.139s.1-.009.1-.139l.278-.372A37.47,37.47,0,0,0,86.337,44.4c.664-1.812,1.332-3.628,2.018-5.44q1.971-5.348,3.893-10.93a114.167,114.167,0,0,0,3.332-11.674c.247-.991.493-1.964.753-2.9.242-.937.493-1.937.744-3a27.737,27.737,0,0,0,.8-2.951,7.744,7.744,0,0,0,.045-3.045,3.825,3.825,0,0,0-1.87,1.924c-.377.839-.753,1.7-1.13,2.574A114.821,114.821,0,0,0,89.9,22.357Q87.8,29.3,85.92,37.175c-.5,2.059-.924,4.189-1.265,6.373s-.641,4.319-.888,6.377m24.658,8.346c0-.126.031-.17.094-.139s.031.076-.094.139" transform="translate(-3947.834 -8765.629)" fill="#c4a258"/>
    <path id="Path_323" data-name="Path 323" d="M99.9.12a4.294,4.294,0,0,1,3.57,1.825,8.531,8.531,0,0,1,1.215,3.893,16.428,16.428,0,0,1-.327,4.736c-.341,1.655-.7,3.112-1.072,4.359q-1.8,5.725-3.852,11.208t-4.22,10.548Q91.941,44,88.845,50.758a68,68,0,0,1-7.131,12.19c-.435.377-.875.718-1.31,1.032A10.8,10.8,0,0,0,79.09,65.1a24.282,24.282,0,0,0-.7,3.7,27.836,27.836,0,0,0-.184,3.987,13.915,13.915,0,0,0,.561,3.7,7.139,7.139,0,0,0,1.547,2.861,16.4,16.4,0,0,0,4.032-1.552,29.774,29.774,0,0,0,3.373-2.157,38.9,38.9,0,0,0,3.05-2.48q1.453-1.312,3.05-2.534a24.95,24.95,0,0,1,2.861-2.628,24.552,24.552,0,0,0,2.861-2.624,13.889,13.889,0,0,0,2.946-2.624,9.9,9.9,0,0,1,3.144-2.44,11.562,11.562,0,0,1-1.875,3.422c-.812,1.032-1.659,2.081-2.529,3.139s-1.7,2.126-2.489,3.193a32.435,32.435,0,0,1-2.485,3,25.616,25.616,0,0,1-2.668,2.812q-1.366,1.218-3.144,2.529c-1,.753-2.126,1.561-3.368,2.44a6.735,6.735,0,0,1-4.225,1.22,5.939,5.939,0,0,1-3.095-.892,9.915,9.915,0,0,1-2.624-2.247,11.373,11.373,0,0,1-1.83-3.144,11.5,11.5,0,0,1-.8-3.655,13.47,13.47,0,0,1,.426-3.283,9.039,9.039,0,0,0,.233-3.283,2.541,2.541,0,0,0-.422-1.032,1.384,1.384,0,0,1-.238-1.032c.067-.44.206-.668.426-.7s.386-.3.516-.794A174.407,174.407,0,0,1,79.09,44.331q2.254-8.577,4.974-16.643,1.312-3.935,2.852-7.781a55.582,55.582,0,0,1,3.521-7.221c1.319-2.251,2.655-4.471,4.032-6.66A20.5,20.5,0,0,1,99.537.492c.121-.251.247-.372.368-.372M91.845,33.783c.875-2,1.776-4,2.722-6A58.076,58.076,0,0,0,97.1,21.311q1.305-3.935,2.718-8.2a23.24,23.24,0,0,0,1.032-9.145q0-.188-.094-.188A40.145,40.145,0,0,0,96.626,9.26q-1.776,2.866-3.471,5.956A85.806,85.806,0,0,0,87.477,28.11Q85.1,35,83.216,42.318q-.848,3.747-1.78,7.454a59.61,59.61,0,0,0-1.408,7.642q3.29-5.624,6.189-11.49t5.628-12.14" transform="translate(-3917.468 -8767.584)" fill="#c4a258"/>
    <path id="Path_324" data-name="Path 324" d="M96.715,19.918a3.361,3.361,0,0,0,1.31-.417,2.329,2.329,0,0,1,1.6-.144,3.122,3.122,0,0,1,1.175,2.108,10.217,10.217,0,0,1-.1,2.673c-.157.942-.345,1.893-.561,2.861A7.046,7.046,0,0,0,100,29.672a19.487,19.487,0,0,0,6.377-1.92,31.486,31.486,0,0,0,5.2-3.382,51.335,51.335,0,0,0,4.5-4.077c1.4-1.435,2.83-2.781,4.261-4.032a4.1,4.1,0,0,1-.139,2.063c-.22.628-.457,1.283-.7,1.969a41.933,41.933,0,0,1-7.543,7.786,33.13,33.13,0,0,1-10.181,5.341,4.088,4.088,0,0,1-2.624-.749A4.243,4.243,0,0,1,97.8,30.659a9.01,9.01,0,0,1-.422-2.861,29.632,29.632,0,0,1,.188-3.287,13.744,13.744,0,0,0-3.426,2.211q-1.547,1.359-3.086,2.812Q89.5,30.987,87.8,32.3a11.58,11.58,0,0,1-3.933,1.969,6.778,6.778,0,0,1-3.655-.749,4.427,4.427,0,0,1-.7-2.677,11.584,11.584,0,0,1,.52-3.09A15.509,15.509,0,0,1,81.247,24.8c.5-.937.937-1.754,1.31-2.44a34.665,34.665,0,0,1,2.722-3.893,38.866,38.866,0,0,0,2.44-3.328,5.348,5.348,0,0,1,1.969-1.359,9.12,9.12,0,0,1,2.525-.659,5.819,5.819,0,0,1,2.534.283,4.863,4.863,0,0,1,2.063,1.359,3.888,3.888,0,0,1,.753,2.485,4.342,4.342,0,0,1-.848,2.673M94,17.106a14.69,14.69,0,0,0-3.8,2.157,16.443,16.443,0,0,0-2.906,3,20.78,20.78,0,0,0-2.207,3.7q-.935,2.018-1.78,4.171a20.937,20.937,0,0,0,6-4.314q2.536-2.617,5.346-5.063a.789.789,0,0,1-.417-.7,5.343,5.343,0,0,1,0-1.072c.027-.377.04-.736.04-1.081a1.064,1.064,0,0,0-.278-.8" transform="translate(-3899.927 -8722.4)" fill="#c4a258"/>
    <path id="Path_325" data-name="Path 325" d="M122.757,8.179a17.667,17.667,0,0,0-5.624,4.592q-2.254,2.812-4.5,5.723a63.785,63.785,0,0,0-6.795,13.033,118.391,118.391,0,0,0-4.83,15.145,106.754,106.754,0,0,0-2.579,14.392,46.192,46.192,0,0,0-.144,10.692,23.734,23.734,0,0,0,.377,2.44,18.107,18.107,0,0,0,.749,2.673,7.8,7.8,0,0,0,1.175,2.153,2.426,2.426,0,0,0,1.727.987,3.2,3.2,0,0,0,1.839-.422,14.962,14.962,0,0,0,1.969-1.265A18.555,18.555,0,0,0,107.9,76.77c.529-.525.946-.951,1.265-1.26a42.728,42.728,0,0,0,7.122-10.037q2.913-5.631,5.35-11.158c.121-.686.251-1.341.368-1.969s.26-1.247.386-1.875a3.3,3.3,0,0,1,1.92,2.39,10.631,10.631,0,0,1,.229,3.61,14.31,14.31,0,0,1-1.4,5.108c-.816,1.722-1.623,3.328-2.44,4.83q-2.146,3.935-4.31,7.458a28.743,28.743,0,0,1-5.158,6.234c-1.067.561-2.081,1.126-3.05,1.691a6.925,6.925,0,0,1-3.8.744,10.094,10.094,0,0,1-5.2-1.453,8.782,8.782,0,0,1-3.521-3.422,16.958,16.958,0,0,1-1.5-6.283,57.411,57.411,0,0,1,.1-9.8,115.761,115.761,0,0,1,1.686-12,113.64,113.64,0,0,1,3.234-12.894,101.619,101.619,0,0,1,4.785-12.468,63.7,63.7,0,0,1,6.229-10.79c1.067-1.431,2.144-2.781,3.238-4.027a16,16,0,0,1,3.8-3.189q1.029-.377,2.059-.7a16.512,16.512,0,0,1,2.063-.516,6.473,6.473,0,0,1,2.059-.045,5.092,5.092,0,0,1,2.063.8,6.11,6.11,0,0,1,2.534,3.09,11.794,11.794,0,0,1,.8,3.848,7,7,0,0,1-.614,3.234c-.439.906-1,1.3-1.686,1.171a1.1,1.1,0,0,1-.753-.605,8.333,8.333,0,0,1-.511-1.22c-.157-.471-.3-.937-.426-1.408s-.215-.857-.283-1.171c-.184-1.063-.372-1.955-.556-2.677a3.461,3.461,0,0,0-1.224-1.825" transform="translate(-3849.454 -8750.981)" fill="#c4a258"/>
    <path id="Path_326" data-name="Path 326" d="M107.24,24.594a3.015,3.015,0,0,1,1.973.978,4.876,4.876,0,0,1,.937,1.928c0,.188-.144.265-.426.233a.59.59,0,0,0-.61.233q-1.5,2.913-2.861,6.189a17.162,17.162,0,0,0-1.076,7.691,6.984,6.984,0,0,0,4.453-.332c1.408-.6,2.673-1.171,3.8-1.736,1.184-.619,2.323-1.265,3.417-1.92a22.029,22.029,0,0,0,3.139-2.3c1.624-1.063,3.243-2.126,4.83-3.189a53.389,53.389,0,0,1,5.113-3,10.294,10.294,0,0,0,1.731-.991,2.56,2.56,0,0,1,1.74-.507,10.524,10.524,0,0,1-2.529,2.574,22.371,22.371,0,0,0-2.812,2.39c-1.26,1.13-2.6,2.3-4.041,3.521s-2.938,2.453-4.5,3.7a55.471,55.471,0,0,1-4.543,3.377,11.513,11.513,0,0,1-5.866,1.78q-6,.283-7.781-4.875a13.109,13.109,0,0,1,.049-2.485c.094-.718.2-1.453.327-2.2.372-.937.718-1.906,1.027-2.911s.646-2,.987-3a15.056,15.056,0,0,1,1.269-2.772,7.073,7.073,0,0,1,1.875-2.108ZM114.178,9.87a3.727,3.727,0,0,1,.238,3,2.725,2.725,0,0,1-1.919,1.969,7.756,7.756,0,0,1-1.78-.7,2.246,2.246,0,0,1-1.036-1.458c.561-.686,1.139-1.345,1.736-1.969a3.42,3.42,0,0,1,2.763-.843" transform="translate(-3823.993 -8733.634)" fill="#c4a258"/>
    <path id="Path_327" data-name="Path 327" d="M110.976,25.156a5.427,5.427,0,0,0-1.027,2.346c-.188.937-.4,1.875-.659,2.812a7.43,7.43,0,0,0,3.328.892,13.3,13.3,0,0,0,3.476-.377,22.659,22.659,0,0,0,3.413-1.121q1.7-.706,3.193-1.363a36.018,36.018,0,0,0,4.126-2.108q1.971-1.171,3.844-2.112a1.051,1.051,0,0,1-.556,1.081,6.788,6.788,0,0,0-1.13.888,5.071,5.071,0,0,1-1.036.8,2.631,2.631,0,0,0-.933.982c-.691.5-1.372,1.032-2.067,1.6a20.031,20.031,0,0,1-2.247,1.6,13.944,13.944,0,0,1-2.906,2.108,16.3,16.3,0,0,1-3.983,1.637,11.39,11.39,0,0,1-4.081.381,4.7,4.7,0,0,1-3.278-1.785,7.315,7.315,0,0,1-1.22-3.328,15.134,15.134,0,0,1,0-4.175,33.009,33.009,0,0,1,4.22-7.97,18.282,18.282,0,0,1,6.561-5.53c.126.063.2.063.238,0s.108-.094.229-.094a6.041,6.041,0,0,1,4.27.843q1.547,1.123,1.072,3.749a24.337,24.337,0,0,1-4.265,5.624,12.442,12.442,0,0,1-6.795,3.189,2.454,2.454,0,0,1-1.785-.561m2.44-4.4a28.165,28.165,0,0,0,4.265-2.538,8.438,8.438,0,0,0,2.956-3.373,21.875,21.875,0,0,0-7.221,5.911" transform="translate(-3803.822 -8725.294)" fill="#c4a258"/>
    <path id="Path_328" data-name="Path 328" d="M121.577,64.677c1.121-.875,2.377-1.812,3.745-2.812a44.177,44.177,0,0,1,4.229-2.722,10.533,10.533,0,0,1,3.328-.561,7.1,7.1,0,0,1,2.9.561,5.047,5.047,0,0,1,2.063,1.641,4.527,4.527,0,0,1,.8,2.767,15.565,15.565,0,0,1-.8,5.534,25.94,25.94,0,0,1-2.247,4.92,32.626,32.626,0,0,1-2.955,4.22c-1.063,1.283-2,2.458-2.812,3.516a8.016,8.016,0,0,0-1.83,1.13,8.315,8.315,0,0,1-1.83,1.121c-2.561-.309-4.341-1.314-5.341-3a10.225,10.225,0,0,1,.655-3.754q.659-1.689,1.4-3.189c.5-.875,1.036-1.794,1.6-2.767a5.678,5.678,0,0,1,2.251-2.2c-.749,1.44-1.529,3.045-2.35,4.83a13.646,13.646,0,0,0-1.027,6.422A15.984,15.984,0,0,0,127.34,77.1a25.513,25.513,0,0,0,3.238-4.453,30.549,30.549,0,0,0,2.3-5.3,17.85,17.85,0,0,0,.8-6.516,17.728,17.728,0,0,0-3.9,1.875,19.662,19.662,0,0,0-3.189,2.579,35.582,35.582,0,0,0-2.718,3.05q-1.265,1.594-2.579,3.184-1.312,4.413-2.673,8.862a37.345,37.345,0,0,0-1.458,10.27,4.006,4.006,0,0,1-2.906-.61,21.657,21.657,0,0,1-1.964-1.736,1.753,1.753,0,0,1-.184-.8,1.2,1.2,0,0,0-.193-.7A24.239,24.239,0,0,1,112.387,81c.368-1.758.78-3.534,1.22-5.346q.747-2.913,1.265-5.628t1.175-5.44c-.193-.309-.6-.435-1.224-.377a2.69,2.69,0,0,1-1.5-.188,6.348,6.348,0,0,1,1.924-1.731,6.321,6.321,0,0,0,1.915-1.736q1.6-8.254,3.431-16.361T124.761,28.3q2.355-7.7,5.256-14.769A48.193,48.193,0,0,1,137.52.912c.493-.251,1-.484,1.5-.7a3.857,3.857,0,0,1,2.063-.139,6.874,6.874,0,0,1,3.749,4.879A63.412,63.412,0,0,1,143.7,13.9c-.561,2.785-1.238,5.454-2.014,8.019s-1.659,5.032-2.628,7.409-1.919,4.781-2.861,7.221A131.77,131.77,0,0,1,129.78,50.24a103.477,103.477,0,0,1-7.826,12.279c-.063.372-.112.753-.148,1.126a3.433,3.433,0,0,1-.229,1.032m12.378-34.13q2.529-6.189,4.687-12.849a61.479,61.479,0,0,0,2.718-14.535c-.063,0-.152-.063-.278-.188a.086.086,0,0,0-.1-.094,53.569,53.569,0,0,0-6.655,10.741,108.2,108.2,0,0,0-4.965,12.517Q127.2,32.7,125.609,39.782c-1.067,4.718-2.059,9.423-3,14.114a86.079,86.079,0,0,0,6.095-11.3q2.63-5.859,5.256-12.046" transform="translate(-3787.038 -8768.004)" fill="#c4a258"/>
    <path id="Path_329" data-name="Path 329" d="M124.217,24.594a2.982,2.982,0,0,1,1.969.978,4.943,4.943,0,0,1,.942,1.928c0,.188-.148.265-.426.233a.59.59,0,0,0-.61.233q-1.5,2.913-2.861,6.189a17.16,17.16,0,0,0-1.081,7.691,6.993,6.993,0,0,0,4.458-.332c1.4-.6,2.673-1.171,3.8-1.736,1.188-.619,2.328-1.265,3.422-1.92a22.026,22.026,0,0,0,3.139-2.3q2.442-1.594,4.835-3.189a53.3,53.3,0,0,1,5.108-3,10.292,10.292,0,0,0,1.731-.991,2.566,2.566,0,0,1,1.74-.507,10.624,10.624,0,0,1-2.534,2.574,23.022,23.022,0,0,0-2.812,2.39q-1.884,1.7-4.032,3.521t-4.5,3.7a54.793,54.793,0,0,1-4.548,3.377,11.469,11.469,0,0,1-5.862,1.78q-6,.283-7.777-4.875a12.812,12.812,0,0,1,.04-2.485c.1-.718.2-1.453.332-2.2q.558-1.406,1.032-2.911c.3-1,.641-2,.982-3a14.753,14.753,0,0,1,1.265-2.772,7.135,7.135,0,0,1,1.875-2.108ZM131.155,9.87a3.728,3.728,0,0,1,.242,3,2.751,2.751,0,0,1-1.928,1.969,8.1,8.1,0,0,1-1.78-.7,2.245,2.245,0,0,1-1.036-1.458c.565-.686,1.144-1.345,1.74-1.969a3.42,3.42,0,0,1,2.763-.843" transform="translate(-3764.832 -8733.634)" fill="#c4a258"/>
    <path id="Path_330" data-name="Path 330" d="M127.959,25.156a5.435,5.435,0,0,0-1.036,2.346q-.276,1.406-.659,2.812a7.448,7.448,0,0,0,3.332.892,13.287,13.287,0,0,0,3.471-.377,22.878,22.878,0,0,0,3.417-1.121c1.126-.471,2.193-.924,3.193-1.363a35.292,35.292,0,0,0,4.126-2.108q1.964-1.171,3.844-2.112a1.062,1.062,0,0,1-.561,1.081,6.522,6.522,0,0,0-1.121.888,5.465,5.465,0,0,1-1.036.8,2.607,2.607,0,0,0-.937.982c-.691.5-1.377,1.032-2.068,1.6a20.461,20.461,0,0,1-2.247,1.6,14.271,14.271,0,0,1-2.9,2.108,16.512,16.512,0,0,1-3.991,1.637,11.363,11.363,0,0,1-4.081.381,4.7,4.7,0,0,1-3.278-1.785,7.366,7.366,0,0,1-1.22-3.328,15.49,15.49,0,0,1,0-4.175,33.474,33.474,0,0,1,4.216-7.97,18.334,18.334,0,0,1,6.566-5.53c.126.063.206.063.238,0s.108-.094.238-.094a6.016,6.016,0,0,1,4.261.843q1.547,1.123,1.081,3.749a24.608,24.608,0,0,1-4.27,5.624,12.41,12.41,0,0,1-6.8,3.189,2.438,2.438,0,0,1-1.776-.561m2.431-4.4a28.428,28.428,0,0,0,4.27-2.538,8.424,8.424,0,0,0,2.951-3.373,21.966,21.966,0,0,0-7.221,5.911" transform="translate(-3744.66 -8725.294)" fill="#c4a258"/>
    <rect id="Rectangle_78" data-name="Rectangle 78" width="580" height="151.78" transform="translate(-4177 -8768.001)" fill="none"/>
  </g>
</svg>
