<svg xmlns="http://www.w3.org/2000/svg" width="308" height="308" viewBox="0 0 308 308">
  <g id="Group_491" data-name="Group 491" transform="translate(-632 -3551)">
    <g id="Vector_Smart_Object" data-name="Vector Smart Object" transform="translate(58 24)" opacity="0.7">
      <g id="Vector_Smart_Object-2" data-name="Vector Smart Object" transform="translate(625.821 3599.357)">
        <path id="Path_273" data-name="Path 273" d="M123.695,26.921H102.678V47.937h21.017Zm-5.23,15.786H107.94V32.183h10.525Z" fill="#080808" stroke="#fff" stroke-width="1.2"/>
        <path id="Path_274" data-name="Path 274" d="M160.53,26.921H139.513V47.937H160.53Zm-5.262,15.786H144.743V32.183h10.525Z" fill="#080808" stroke="#fff" stroke-width="1.2"/>
        <path id="Path_275" data-name="Path 275" d="M123.695,55.862H102.678V76.879h21.017Zm-5.23,15.754H107.94V61.092h10.525Z" fill="#080808" stroke="#fff" stroke-width="1.2"/>
        <path id="Path_276" data-name="Path 276" d="M160.53,55.862H139.513V76.879H160.53Zm-5.262,15.754H144.743V61.092h10.525Z" fill="#080808" stroke="#fff" stroke-width="1.2"/>
        <path id="Path_277" data-name="Path 277" d="M123.695,84.773H102.678v21.017h21.017Zm-5.23,15.786H107.94V90.035h10.525Z" fill="#080808" stroke="#fff" stroke-width="1.2"/>
        <path id="Path_278" data-name="Path 278" d="M160.53,84.773H139.513v21.017H160.53Zm-5.262,15.786H144.743V90.035h10.525Z" fill="#080808" stroke="#fff" stroke-width="1.2"/>
        <path id="Path_279" data-name="Path 279" d="M128.958,13.8h5.262v5.262h-5.262Z" fill="#080808" stroke="#fff" stroke-width="1.2"/>
        <path id="Path_280" data-name="Path 280" d="M139.481,13.8h5.262v5.262h-5.262Z" fill="#080808" stroke="#fff" stroke-width="1.2"/>
        <path id="Path_281" data-name="Path 281" d="M118.464,13.8h5.262v5.262h-5.262Z" fill="#080808" stroke="#fff" stroke-width="1.2"/>
        <path id="Path_282" data-name="Path 282" d="M176.287,158.38V.642H86.892V22.622L29.073,48.9V158.38H21.179v5.262h163V158.38Zm-89.394,0H34.333V52.3L86.924,28.4V158.382Zm28.942,0v-36.8h31.543v36.8Zm55.188,0H152.6V116.315H110.571V158.38H92.153V5.905h78.869Z" fill="#080808" stroke="#fff" stroke-width="1.2"/>
        <path id="Path_283" data-name="Path 283" d="M71.135,58.493H50.086V79.51H71.1V58.493ZM65.873,74.248H55.348V63.723H65.873Z" fill="#080808" stroke="#fff" stroke-width="1.2"/>
        <path id="Path_284" data-name="Path 284" d="M71.135,92.667H50.086v21.017H71.1V92.667Zm-5.262,15.754H55.348V97.9H65.873Z" fill="#080808" stroke="#fff" stroke-width="1.2"/>
        <path id="Path_285" data-name="Path 285" d="M71.135,126.838H50.086v21.017H71.1V126.838Zm-5.262,15.786H55.348V132.1H65.873Z" fill="#080808" stroke="#fff" stroke-width="1.2"/>
      </g>
      <path id="Color_Overlay" data-name="Color Overlay" d="M647,3763v-5.262h7.892v-109.48l57.82-26.279V3600h89.394v157.737H810V3763Zm13.152-111.339v106.076h52.56l.032,0V3627.757Zm118.272,64.011v42.065h18.417V3605.263H717.974v152.474h18.417v-42.065Zm-36.771,42.065H773.2v-36.8H741.655Zm-65.747-10.526V3726.2h21.016v21.016Zm5.261-5.23h10.525v-10.524H681.169Zm-5.261-28.941v-21.017h21.016v21.017Zm5.261-5.262h10.525v-10.524H681.169Zm84.165-2.632V3684.13h21.017v21.016Zm5.231-5.231h10.523v-10.523H770.565Zm-42.066,5.231V3684.13h21.017v21.016Zm5.263-5.231h10.523v-10.523H733.762Zm-57.854-21.048v-21.017h21.016v21.017Zm5.261-5.262h10.525v-10.525H681.169Zm84.165,2.63V3655.22h21.017v21.016Zm5.231-5.262h10.523V3660.45H770.565Zm-42.066,5.262V3655.22h21.017v21.016Zm5.263-5.262h10.523V3660.45H733.762Zm31.572-23.68v-21.016h21.017v21.016Zm5.231-5.23h10.523V3631.54H770.565Zm-42.066,5.23v-21.016h21.017v21.016Zm5.263-5.23h10.523V3631.54H733.762Zm31.54-23.647v-5.262h5.263v5.262Zm-10.523,0v-5.262h5.263v5.262Zm-10.493,0v-5.262h5.262v5.262Z" fill="#080808" stroke="#fff" stroke-width="1.2"/>
    </g>
    <g id="Rectangle_90" data-name="Rectangle 90" transform="translate(632 3551)" fill="none" stroke="#c9a244" stroke-width="2">
      <rect width="308" height="308" stroke="none"/>
      <rect x="1" y="1" width="306" height="306" fill="none"/>
    </g>
  </g>
</svg>
