<svg xmlns="http://www.w3.org/2000/svg" xmlns:xlink="http://www.w3.org/1999/xlink" width="308" height="308" viewBox="0 0 308 308">
  <defs>
    <clipPath id="clip-path">
      <rect id="Rectangle_74" data-name="Rectangle 74" width="180.955" height="173.261" fill="#080808" stroke="#c9a244" stroke-width="0.5"/>
    </clipPath>
  </defs>
  <g id="Group_487" data-name="Group 487" transform="translate(-284 -3551)">
    <g id="Group_473" data-name="Group 473" transform="translate(348 3618)" opacity="0.7">
      <g id="Group_472" data-name="Group 472" clip-path="url(#clip-path)">
        <path id="Path_313" data-name="Path 313" d="M92.13,15.59l7.534-4.234a1.892,1.892,0,0,1,1.187-.225l32.966,4.551,24.13-2.271a1.9,1.9,0,0,1,1.135.252l10.368,6.076a1.9,1.9,0,0,1,.911,1.329l2.765,16.87,5.812,14.883a1.879,1.879,0,0,1,.13.689V67.059a1.9,1.9,0,0,1-1.067,1.7l-6.833,3.317-3.7,6.217,5.644,3.653a1.894,1.894,0,0,1,.863,1.5l.421,9.439a1.9,1.9,0,0,1-.807,1.637l-1.631,1.139,2.326,10.613,6.394,10.36a1.9,1.9,0,0,1,.282.994v13.22a1.9,1.9,0,0,1-1.3,1.8l-4.768,1.568-18.724,22.5,1.348,8.251,2.153,2.98a1.9,1.9,0,0,1,.358,1.11v2.3a1.894,1.894,0,0,1-2.556,1.775L142.354,167.5a1.9,1.9,0,0,1-1.09-1.055l-1.443-3.521-11.131-2.315-3.029,3.963a1.894,1.894,0,0,1-2.77.259l-3.441-3.09-8.061,1.219-.84,3.242a1.9,1.9,0,0,1-1.834,1.418h-5.166a1.894,1.894,0,0,1-1.894-1.894v-5.137L97.3,156.743l-7.686,4.613a1.9,1.9,0,0,1-2.645-.729L84.118,155.3l-4.067-7.61-7.405-3.51-2.972,1.758a1.893,1.893,0,0,1-2.41-.408L62.9,140.361a1.9,1.9,0,0,1-.335-1.864l.919-2.555-9.89-2.418,1.067,3.066a1.9,1.9,0,0,1-1.142,2.4l-5.306,1.926a1.892,1.892,0,0,1-1.943-.4l-8.82-8.281a1.894,1.894,0,0,1,.166-2.9l2.514-1.873L38.044,126.3,22.765,122.5a1.9,1.9,0,0,1-1.36-1.3l-1.187-4.021H16.152a1.893,1.893,0,0,1-1.877-2.149l1.482-10.9-3.642-1.975A1.894,1.894,0,0,1,11.194,101L8.887,92.694a1.9,1.9,0,0,1,.038-1.135l2.053-5.844L8.2,79.689q-.069-.149-.934-5a1.9,1.9,0,0,1,.12-1.06l1.048-2.491-7.8-6.908A1.9,1.9,0,0,1,0,62.815V58.8a1.892,1.892,0,0,1,.7-1.471l3.65-2.959V47.847L1.415,30.224a1.893,1.893,0,0,1,1.246-2.1L37.522,16.009l4.5-6.775A1.9,1.9,0,0,1,43.35,8.4L52,7.229l4.291-4.154a1.9,1.9,0,0,1,1.084-.519L77.967.015A1.9,1.9,0,0,1,80.04,1.452l2.947,12.235Zm62.046,151.242a1.9,1.9,0,0,1-.333-.8l-1.561-9.546a1.892,1.892,0,0,1,.413-1.517l19.626-23.581a1.9,1.9,0,0,1,.864-.587l3.982-1.31V118.175L170.887,108a1.91,1.91,0,0,1-.238-.589l-2.667-12.16a1.9,1.9,0,0,1,.764-1.959l1.814-1.267L170.23,84.6l-6.356-4.113a1.9,1.9,0,0,1-.6-2.56l4.929-8.273a1.9,1.9,0,0,1,.8-.734l6.276-3.046V53.867l-5.754-14.736-2.758-16.573L157.7,17.24l-23.741,2.234q-.146.013-32.991-4.5l-7.6,4.27a1.894,1.894,0,0,1-1.313.2L81.041,17.151a1.893,1.893,0,0,1-1.456-1.41L76.753,3.982,58.471,6.239,54.19,10.383a1.9,1.9,0,0,1-1.062.517l-8.42,1.144-4.383,6.593a1.892,1.892,0,0,1-.955.74L5.413,31.176l2.7,16.2.026,7.894a1.893,1.893,0,0,1-.7,1.471L3.787,59.7v2.261l8.179,7.243a1.892,1.892,0,0,1,.49,2.154L11.1,74.589l.65,3.739,2.991,6.5a1.89,1.89,0,0,1,.066,1.42L12.7,92.252l1.933,6.959,4.084,2.216a1.892,1.892,0,0,1,.974,1.921L18.32,113.392h3.313a1.9,1.9,0,0,1,1.817,1.358l1.28,4.338L39.2,122.683q.164.04,5.326,2.9a1.9,1.9,0,0,1,.205,3.172l-3.042,2.266,6.322,5.935,2.454-.891-1.6-4.589a1.894,1.894,0,0,1,2.239-2.463l15.317,3.744a1.893,1.893,0,0,1,1.332,2.481L66.5,138.751l2.624,3.107,2.459-1.455a1.9,1.9,0,0,1,1.776-.08l8.879,4.209a1.9,1.9,0,0,1,.859.818l4.359,8.159,1.916,3.575,7.169-4.3a1.9,1.9,0,0,1,2.229.2l6.032,5.328a1.894,1.894,0,0,1,.641,1.42v4.1h1.8l.787-3.033a1.894,1.894,0,0,1,1.551-1.4l10.181-1.539a1.9,1.9,0,0,1,1.549.463l2.581,2.318,2.507-3.281a1.893,1.893,0,0,1,1.89-.7l13.284,2.76a1.892,1.892,0,0,1,1.367,1.136l1.51,3.686L155.2,168.25Z" transform="translate(0 -0.001)" fill="#080808" stroke="#c9a244" stroke-width="0.5"/>
      </g>
    </g>
    <g id="Rectangle_89" data-name="Rectangle 89" transform="translate(284 3551)" fill="none" stroke="#c9a244" stroke-width="2">
      <rect width="308" height="308" stroke="none"/>
      <rect x="1" y="1" width="306" height="306" fill="none"/>
    </g>
  </g>
</svg>
