<svg xmlns="http://www.w3.org/2000/svg" width="308" height="308" viewBox="0 0 308 308">
  <g id="Group_492" data-name="Group 492" transform="translate(-980 -3551)">
    <g id="Vector_Smart_Object" data-name="Vector Smart Object" transform="translate(96.001 24)" opacity="0.7">
      <g id="Vector_Smart_Object-2" data-name="Vector Smart Object" transform="translate(928.505 3593.248)">
        <g id="Group_469" data-name="Group 469">
          <path id="Path_299" data-name="Path 299" d="M85.083,140.931H62.066a2.256,2.256,0,0,1-2.253-2.259V98.116a2.256,2.256,0,0,1,2.253-2.259H85.083a2.255,2.255,0,0,1,2.251,2.259v40.556A2.256,2.256,0,0,1,85.083,140.931Zm-20.766-4.516H82.83v-36.04H64.317Z" fill="#080808" stroke="#f3f3f3" stroke-width="0.3"/>
          <path id="Path_300" data-name="Path 300" d="M126.221,140.928H103.2a2.256,2.256,0,0,1-2.253-2.257V71.09a2.256,2.256,0,0,1,2.253-2.257h23.018a2.256,2.256,0,0,1,2.253,2.257V138.67A2.256,2.256,0,0,1,126.221,140.928Zm-20.775-4.516h18.523V73.338H105.446Z" fill="#080808" stroke="#f3f3f3" stroke-width="0.3"/>
          <path id="Path_301" data-name="Path 301" d="M167.35,140.928H144.331a2.256,2.256,0,0,1-2.253-2.257V32.429a2.257,2.257,0,0,1,2.253-2.259H167.35a2.256,2.256,0,0,1,2.251,2.259V138.67A2.255,2.255,0,0,1,167.35,140.928Zm-20.775-4.516H165.1V34.687H146.574Z" fill="#080808" stroke="#f3f3f3" stroke-width="0.3"/>
          <path id="Path_302" data-name="Path 302" d="M181.24,156.5H46.467a2.256,2.256,0,0,1-2.251-2.259V12.01a2.252,2.252,0,1,1,4.5,0V151.988H181.24a2.258,2.258,0,0,1,0,4.516Z" fill="#080808" stroke="#f3f3f3" stroke-width="0.3"/>
          <path id="Path_303" data-name="Path 303" d="M55.692,24.027a2.235,2.235,0,0,1-1.631-.7l-7.595-8.031L39.375,22.8a2.252,2.252,0,1,1-3.269-3.1l8.719-9.232a2.242,2.242,0,0,1,3.263,0l9.225,9.764a2.239,2.239,0,0,1-1.622,3.794Z" fill="#080808" stroke="#f3f3f3" stroke-width="0.3"/>
          <path id="Path_304" data-name="Path 304" d="M171.5,165.752a2.254,2.254,0,0,1-1.54-3.893l8.008-7.615-7.476-7.109a2.253,2.253,0,0,1,3.09-3.28l9.206,8.744a2.255,2.255,0,0,1,0,3.27l-9.739,9.249a2.233,2.233,0,0,1-1.551.633Z" fill="#080808" stroke="#f3f3f3" stroke-width="0.3"/>
        </g>
      </g>
      <path id="Color_Overlay" data-name="Color Overlay" d="M1098.379,3758.3a2.251,2.251,0,0,1,.09-3.189l5.631-5.355H974.972a2.255,2.255,0,0,1-2.251-2.258V3610.922l-4.841,5.125a2.252,2.252,0,1,1-3.269-3.1l8.654-9.161a2.247,2.247,0,0,1,3.53.143l9.023,9.551a2.239,2.239,0,0,1-1.622,3.794,2.23,2.23,0,0,1-1.63-.7l-5.341-5.645v134.311h126.88l-5.1-4.854a2.253,2.253,0,0,1,3.091-3.279l9.206,8.744a2.25,2.25,0,0,1,.7,1.634,2.292,2.292,0,0,1-.087.625,2.261,2.261,0,0,1-.771,1.159l-9.583,9.1a2.226,2.226,0,0,1-3.18-.072Zm-107.808-24.116a2.256,2.256,0,0,1-2.253-2.26v-40.556a2.255,2.255,0,0,1,2.253-2.258h23.017a2.254,2.254,0,0,1,2.251,2.258v40.556a2.255,2.255,0,0,1-2.251,2.26Zm2.252-4.516h18.513v-36.041H992.823Zm80.013,4.512a2.256,2.256,0,0,1-2.253-2.258V3625.677a2.257,2.257,0,0,1,2.253-2.258h23.019a2.256,2.256,0,0,1,2.252,2.258v106.241a2.256,2.256,0,0,1-2.252,2.258Zm2.242-4.516H1093.6V3627.935h-18.523Zm-43.371,4.516a2.255,2.255,0,0,1-2.252-2.258v-67.58a2.256,2.256,0,0,1,2.252-2.257h23.019a2.256,2.256,0,0,1,2.253,2.257v67.58a2.257,2.257,0,0,1-2.253,2.258Zm2.243-4.516h18.522v-63.074h-18.522Z" fill="#080808" stroke="#f3f3f3" stroke-width="0.3"/>
    </g>
    <g id="Rectangle_91" data-name="Rectangle 91" transform="translate(980 3551)" fill="none" stroke="#c9a244" stroke-width="2">
      <rect width="308" height="308" stroke="none"/>
      <rect x="1" y="1" width="306" height="306" fill="none"/>
    </g>
  </g>
</svg>
