<svg xmlns="http://www.w3.org/2000/svg" width="308" height="308" viewBox="0 0 308 308">
  <g id="Group_493" data-name="Group 493" transform="translate(-1328 -3551)">
    <g id="Vector_Smart_Object" data-name="Vector Smart Object" transform="translate(47 -7)" opacity="0.7">
      <g id="Vector_Smart_Object-2" data-name="Vector Smart Object" transform="translate(1287.802 3593.953)">
        <path id="Path_311" data-name="Path 311" d="M65.355,66.055a2.355,2.355,0,0,0-1.618.738L41.878,89.01a2.368,2.368,0,0,0,0,3.321l21.86,22.216a2.371,2.371,0,0,0,3.386-3.321L49.311,93.069H84.419a2.362,2.362,0,1,0,0-4.723H49.164L67.123,70.115a2.363,2.363,0,0,0-1.768-4.059Zm163.389,0a2.364,2.364,0,0,0-1.472,4.059l17.959,18.231H209.976a2.195,2.195,0,0,0-.44,0,2.372,2.372,0,0,0,.44,4.723h35.107l-17.812,18.157a2.377,2.377,0,0,0,.038,3.358,2.363,2.363,0,0,0,3.348-.036l21.86-22.216a2.368,2.368,0,0,0,0-3.321l-21.86-22.216a2.355,2.355,0,0,0-1.914-.738ZM43.57,129.453a2.36,2.36,0,0,0-2.356,2.436v35.8a2.359,2.359,0,0,0,2.356,2.361H250.824a2.359,2.359,0,0,0,2.356-2.361v-35.8a2.355,2.355,0,1,0-4.71,0v33.434H221.09V147.389a2.357,2.357,0,1,0-4.71,0v17.934H186.573V143.771a2.355,2.355,0,1,0-4.71,0v21.553H149.553V147.389a2.358,2.358,0,1,0-4.712,0v17.934H112.532V143.771a2.355,2.355,0,1,0-4.71,0v21.553H78.015V147.389a2.357,2.357,0,1,0-4.71,0v17.934H45.926V131.89a2.361,2.361,0,0,0-2.354-2.436Z" fill="#080808" stroke="#fdfefe" stroke-width="0.3"/>
      </g>
      <path id="Color_Overlay" data-name="Color Overlay" d="M1331.372,3764a2.359,2.359,0,0,1-2.355-2.362v-35.8a2.359,2.359,0,0,1,2.355-2.436h0a2.36,2.36,0,0,1,2.354,2.436v33.434h27.379v-17.934a2.357,2.357,0,1,1,4.71,0v17.934h29.807v-21.552a2.355,2.355,0,1,1,4.71,0v21.552h32.309v-17.934a2.358,2.358,0,1,1,4.712,0v17.934h32.309v-21.552a2.355,2.355,0,1,1,4.71,0v21.552h29.807v-17.934a2.357,2.357,0,1,1,4.711,0v17.934h27.379v-33.434a2.355,2.355,0,1,1,4.71,0v35.8a2.36,2.36,0,0,1-2.356,2.362Zm183.74-55.465a2.376,2.376,0,0,1-.038-3.357l17.811-18.157h-35.107a2.372,2.372,0,0,1-.441-4.723,2.3,2.3,0,0,1,.441,0h35.255l-17.96-18.231a2.372,2.372,0,1,1,3.386-3.322l21.86,22.217a2.368,2.368,0,0,1,0,3.321l-21.86,22.216a2.362,2.362,0,0,1-1.665.714h-.028A2.354,2.354,0,0,1,1515.112,3708.536Zm-161.906.677a2.362,2.362,0,0,1-1.666-.713l-21.86-22.216a2.369,2.369,0,0,1,0-3.321l21.86-22.217a2.372,2.372,0,1,1,3.386,3.322l-17.959,18.231h35.255a2.362,2.362,0,1,1,0,4.723h-35.108l17.811,18.157a2.376,2.376,0,0,1-.038,3.357,2.345,2.345,0,0,1-1.65.677Z" fill="#080808" stroke="#fdfefe" stroke-width="0.3"/>
    </g>
    <g id="Rectangle_92" data-name="Rectangle 92" transform="translate(1328 3551)" fill="none" stroke="#c9a244" stroke-width="2">
      <rect width="308" height="308" stroke="none"/>
      <rect x="1" y="1" width="306" height="306" fill="none"/>
    </g>
  </g>
</svg>
