<svg xmlns="http://www.w3.org/2000/svg" width="192" height="50.246" viewBox="0 0 192 50.246">
  <g id="Group_500" data-name="Group 500" transform="translate(4177 8768.004)">
    <path id="Path_314" data-name="Path 314" d="M11.314,15.64A7.871,7.871,0,0,1,12.356,16.7a7.507,7.507,0,0,1,.88,1.334,8.2,8.2,0,0,1,.62,1.576,7.419,7.419,0,0,1,.274,1.818,6.192,6.192,0,0,1-.244,1.956q-.272.924-.515,1.864a13.522,13.522,0,0,1-1.986,2.956,12.076,12.076,0,0,1-2.272,2A8.472,8.472,0,0,1,6.87,31.3a4.652,4.652,0,0,1-1.834.226,3.114,3.114,0,0,1-1.2-.409,4.407,4.407,0,0,1-.954-.773,4.871,4.871,0,0,1-.728-1.016,6.716,6.716,0,0,1-.486-1.137,3.363,3.363,0,0,0-.029-.47,1.107,1.107,0,0,1,.029-.439.96.96,0,0,1-.6-.016,1.434,1.434,0,0,1-.547-.348,1.828,1.828,0,0,1-.393-.622,1.742,1.742,0,0,1-.122-.8,3.454,3.454,0,0,1,.228-.984q.2-.531.346-1.016a42.466,42.466,0,0,1,2.76-6.319q1.635-3.047,3.273-5.654.061-.7.1-1.425c.03-.484.035-.989.016-1.515a1.6,1.6,0,0,0-.167-.515.489.489,0,0,1-.013-.486A.359.359,0,0,1,6.811,7.4a1.084,1.084,0,0,1,.362,0,1.327,1.327,0,0,1,.364.107.508.508,0,0,1,.228.165q.091.394.2.773a2.286,2.286,0,0,1,.045.894q.574-.635,1.366-1.5t1.664-1.651a11.872,11.872,0,0,1,1.79-1.335A3.422,3.422,0,0,1,14.584,4.3a1.46,1.46,0,0,1,.789.136q.3.167.606.319a3.573,3.573,0,0,1,.758,1.454A9.415,9.415,0,0,1,16.146,9.3a16.419,16.419,0,0,1-1.226,2.517A19.552,19.552,0,0,1,13.385,14a6,6,0,0,1-2.072,1.637M.884,26.158a3.885,3.885,0,0,0,1.031-1.076c.281-.433.545-.884.789-1.348a38.187,38.187,0,0,0,2-4.562A33.115,33.115,0,0,0,6.1,14.093a.068.068,0,0,0,.048-.014c.01-.01-.006-.016-.048-.016,0-.039-.007-.049-.029-.03a3,3,0,0,1-.348.577c-.235.344-.531.8-.894,1.364s-.757,1.232-1.182,2-.829,1.6-1.213,2.486a24.35,24.35,0,0,0-1,2.788,14.906,14.906,0,0,0-.544,2.91m4.548-4.152a14.338,14.338,0,0,0-1.154,1.576,10.9,10.9,0,0,0-1.013,2,7.516,7.516,0,0,0-.487,2.211,4.024,4.024,0,0,0,.471,2.182,2.326,2.326,0,0,0,.909.335,4.809,4.809,0,0,0,1.212.03,7.837,7.837,0,0,0,2.836-1.2,16.591,16.591,0,0,0,2.318-1.925,7.89,7.89,0,0,0,1.212-1.59,8.8,8.8,0,0,0,.864-2,11.021,11.021,0,0,0,.41-2.3,11.115,11.115,0,0,0-.123-2.562c-.181-.384-.362-.761-.542-1.135a4.137,4.137,0,0,0-.668-.986,1.961,1.961,0,0,0-.47-.333c-.194-.1-.384-.207-.576-.319a1.972,1.972,0,0,1-.486-.378.625.625,0,0,1-.168-.515.534.534,0,0,1,.4-.531,2.249,2.249,0,0,0,.664-.319,8.759,8.759,0,0,0,2.138-2.151A14.478,14.478,0,0,0,14.765,9.3a9.436,9.436,0,0,0,.744-2.637,2.037,2.037,0,0,0-.378-1.727,3.611,3.611,0,0,0-1.986.726,14.5,14.5,0,0,0-2.108,1.757A21.007,21.007,0,0,0,9.159,9.577a18.924,18.924,0,0,0-1.3,1.911,40.259,40.259,0,0,1-.971,4.758q-.607,2.244-1.364,4.335c.3-.2.632-.439.984-.712a9.6,9.6,0,0,1,1.109-.742,13.349,13.349,0,0,0,1.271-.532,2.374,2.374,0,0,1,1.424-.2,6.913,6.913,0,0,0-2.786,1.441,18.063,18.063,0,0,0-2.092,2.167" transform="translate(-4177 -8766.07)" fill="#c4a258"/>
    <path id="Path_315" data-name="Path 315" d="M11.918,12.895a.95.95,0,0,1,.409.212,3.313,3.313,0,0,1,.317.333,7.224,7.224,0,0,1-.3,1.44c-.141.435-.291.86-.455,1.273s-.313.839-.452,1.274a5.144,5.144,0,0,0-.244,1.379,2.467,2.467,0,0,0,.8-.258,5.512,5.512,0,0,0,.712-.439c.222-.162.445-.333.667-.515a7.086,7.086,0,0,1,.665-.486c.4-.383.807-.758,1.215-1.121s.826-.718,1.271-1.061a1.7,1.7,0,0,1,.547.378c.139.151.283.307.423.47a3.453,3.453,0,0,0-.091.819V17.5a.738.738,0,0,0,.423.136,3.271,3.271,0,0,0,.547-.016,4.845,4.845,0,0,0,1.532-.665,10.338,10.338,0,0,0,1.271-1c.4-.362.768-.742,1.122-1.137a11.171,11.171,0,0,1,1.106-1.076,3.14,3.14,0,0,1-.545,1.941,8.419,8.419,0,0,1-1.335,1.485,16.23,16.23,0,0,1-1.318,1.076,3.625,3.625,0,0,1-1.47.652,1.775,1.775,0,0,1-.939-.061,1.656,1.656,0,0,1-.667-.47,2.332,2.332,0,0,1-.425-.744,5.782,5.782,0,0,1-.241-.909,5.626,5.626,0,0,0-.835.606c-.252.223-.506.451-.757.683l-.774.712a6.828,6.828,0,0,1-.848.668,5.391,5.391,0,0,1-.486.3,2.8,2.8,0,0,1-.576.244,1.58,1.58,0,0,1-.607.061,1.128,1.128,0,0,1-.576-.244,1.946,1.946,0,0,1-.606-1.121,3.625,3.625,0,0,1,0-1.608,4.753,4.753,0,0,1,.287-.97c.152-.383.28-.736.38-1.061.1-.342.213-.722.333-1.137a2.416,2.416,0,0,1,.394-.864Z" transform="translate(-4172.362 -8761.677)" fill="#c4a258"/>
    <path id="Path_316" data-name="Path 316" d="M32.089,19.3a4.962,4.962,0,0,1-.879,1.909,7.986,7.986,0,0,1-1.332,1.456,5.656,5.656,0,0,1-.728.545,9.921,9.921,0,0,1-.91.515,5.86,5.86,0,0,1-1,.4,3.571,3.571,0,0,1-1,.151,2.237,2.237,0,0,1-1.122-.212,2.76,2.76,0,0,1-.834-.636,3.865,3.865,0,0,1-.591-.894c-.161-.333-.313-.673-.454-1.015a13.346,13.346,0,0,1-.758,1.226,6.355,6.355,0,0,1-1.106,1.244,2.871,2.871,0,0,1-1.35.665,1.746,1.746,0,0,1-1.485-.529,3.1,3.1,0,0,1-.107-.41,1.179,1.179,0,0,0-.136-.38,16.722,16.722,0,0,1,.3-1.94,5.981,5.981,0,0,1,.639-1.711,2.934,2.934,0,0,1,1.119-1.138,2.882,2.882,0,0,1,1.819-.242,2.626,2.626,0,0,1-.029.681,3.637,3.637,0,0,1-.154.561c-.061.162-.13.329-.213.5a.651.651,0,0,1-.422.348.889.889,0,0,1-.091-.636,1.444,1.444,0,0,0-.03-.667.486.486,0,0,0-.4.348,3.712,3.712,0,0,1-.21.531q-.363.787-.7,1.637a5.29,5.29,0,0,0-.332,1.941,3.977,3.977,0,0,0,.97-.683,8.27,8.27,0,0,0,.789-.879c.242-.315.474-.642.7-.986s.455-.677.7-1a26.006,26.006,0,0,1,.5-5.742q.563-2.714,1.289-5.26a46.749,46.749,0,0,1,2.427-6.608A9.422,9.422,0,0,1,27.5,1.4a1.816,1.816,0,0,1,.8-.712,1.515,1.515,0,0,1,.818.136,1.7,1.7,0,0,1,.518.439,4.306,4.306,0,0,1,.1,1.774,16.71,16.71,0,0,1-.38,1.773q-.483,1.851-.983,3.591T27.36,11.779q-.755,2.336-1.65,4.442t-1.8,4.078q.15.6.287,1.212a5.387,5.387,0,0,0,.378,1.121,1.229,1.229,0,0,0,.683.471,2.262,2.262,0,0,0,.865.045,4.153,4.153,0,0,0,.892-.228q.439-.167.8-.349a10.173,10.173,0,0,0,2.317-1.56q1.081-.957,1.956-1.714m-7.971-2.7c-.042.02-.051.036-.029.045s.029,0,.029-.045l.091-.12a12.667,12.667,0,0,0,.742-1.667q.32-.879.649-1.759.642-1.729,1.26-3.533a37.276,37.276,0,0,0,1.077-3.774c.078-.32.161-.635.242-.938s.161-.626.242-.971a8.968,8.968,0,0,0,.258-.954A2.476,2.476,0,0,0,28.7,1.9a1.245,1.245,0,0,0-.606.622c-.12.271-.242.549-.364.832A36.863,36.863,0,0,0,26.1,7.688q-.678,2.244-1.286,4.79c-.162.665-.3,1.354-.41,2.06s-.206,1.4-.287,2.062m7.971,2.7c0-.041.012-.055.03-.045s.012.025-.03.045" transform="translate(-4168.771 -8767.697)" fill="#c4a258"/>
    <path id="Path_317" data-name="Path 317" d="M28.08,12.895a.942.942,0,0,1,.409.212,3.7,3.7,0,0,1,.32.333,7.324,7.324,0,0,1-.306,1.44q-.211.652-.454,1.273T27.6,17.427a5.144,5.144,0,0,0-.244,1.379,2.437,2.437,0,0,0,.8-.258,5.247,5.247,0,0,0,.713-.439c.222-.162.445-.333.667-.515a6.916,6.916,0,0,1,.667-.486c.4-.383.806-.758,1.212-1.121s.828-.718,1.273-1.061a1.721,1.721,0,0,1,.547.378c.141.151.283.307.423.47a3.453,3.453,0,0,0-.091.819V17.5a.743.743,0,0,0,.425.136,3.259,3.259,0,0,0,.545-.016,4.845,4.845,0,0,0,1.532-.665,10.463,10.463,0,0,0,1.273-1c.391-.362.767-.742,1.121-1.137a11.027,11.027,0,0,1,1.108-1.076,3.159,3.159,0,0,1-.547,1.941,8.459,8.459,0,0,1-1.332,1.485q-.639.576-1.319,1.076a3.65,3.65,0,0,1-1.47.652,1.772,1.772,0,0,1-.939-.061,1.651,1.651,0,0,1-.668-.47,2.3,2.3,0,0,1-.422-.744,5.482,5.482,0,0,1-.244-.909,5.689,5.689,0,0,0-.834.606c-.254.223-.506.451-.761.683s-.507.47-.771.712a6.828,6.828,0,0,1-.848.668,5.194,5.194,0,0,1-.486.3,2.768,2.768,0,0,1-.576.244,1.573,1.573,0,0,1-.606.061,1.108,1.108,0,0,1-.574-.244,1.924,1.924,0,0,1-.609-1.121,3.625,3.625,0,0,1,0-1.608,4.865,4.865,0,0,1,.288-.97c.154-.383.278-.736.38-1.061.1-.342.212-.722.333-1.137a2.444,2.444,0,0,1,.393-.864Z" transform="translate(-4164.101 -8761.677)" fill="#c4a258"/>
    <path id="Path_318" data-name="Path 318" d="M40.481,21.234c.565.019,1.116.065,1.653.135a6.7,6.7,0,0,1,1.457.349,3.627,3.627,0,0,1,1.135.667,2.89,2.89,0,0,1,.755,1.061c-.061.039-.116.009-.164-.091a2.249,2.249,0,0,0-.139-.242.976.976,0,0,0-.194-.244.82.82,0,0,1-.167-.18.2.2,0,0,1-.184-.123,5.18,5.18,0,0,0-1.772-.681,6.234,6.234,0,0,0-2.26-.045,23.011,23.011,0,0,0-.816,3.621,28.03,28.03,0,0,1-.76,3.623,32.794,32.794,0,0,1-1.106,3.334,26.393,26.393,0,0,1-1.379,2.969,20.729,20.729,0,0,1-2.424,3,11.173,11.173,0,0,1-3.153,2.243,4.258,4.258,0,0,1-.88.242,6.03,6.03,0,0,1-1.06.091,5.126,5.126,0,0,1-1.047-.106,2.566,2.566,0,0,1-.834-.319,9.519,9.519,0,0,1-1.332-1.364,4.644,4.644,0,0,1-.547-1.621,8.321,8.321,0,0,1-.061-1.73,9.964,9.964,0,0,1,.271-1.7c.144-.555.3-1.067.457-1.531A16.662,16.662,0,0,1,27.3,29.843,13.2,13.2,0,0,1,29.024,27.6a21.171,21.171,0,0,1,2.062-1.97A23.777,23.777,0,0,1,33.42,23.9a18.085,18.085,0,0,1,2.7-1.425,16.016,16.016,0,0,1,3.031-.939q.213-1.211.364-2.576a9.812,9.812,0,0,0-.059-2.668.125.125,0,0,0-.017-.136.371.371,0,0,0-.1-.075.408.408,0,0,1-.107-.075.125.125,0,0,1-.014-.138.625.625,0,0,1,.2-.484.886.886,0,0,1,.468-.228,1.118,1.118,0,0,1,.547.046.683.683,0,0,1,.394.3,7.967,7.967,0,0,1,.106,1.44,14.384,14.384,0,0,1-.106,1.441q-.091.726-.2,1.441a13.859,13.859,0,0,0-.136,1.409m-1.576.938a20,20,0,0,0-4.774,2.334,24.226,24.226,0,0,0-3.864,3.243,17.768,17.768,0,0,0-1.563,2,22.073,22.073,0,0,0-1.318,2.244q-.485,1.242-.909,2.637a8.2,8.2,0,0,0-.244,3.213A4.33,4.33,0,0,0,26.661,39a1.684,1.684,0,0,0,.816.726c.042,0,.061.01.061.03a1.942,1.942,0,0,0,.561.046c.213-.01.419-.016.623-.016a8.611,8.611,0,0,0,2.483-.955A10,10,0,0,0,33.221,37.3a12.368,12.368,0,0,0,1.608-1.941,19.072,19.072,0,0,0,1.257-2.151,26.185,26.185,0,0,0,1.85-5.154q.7-2.788,1.153-5.818l-.062-.062c0-.041-.012-.045-.029-.016s-.051.038-.091.016M41.695,9.654a.48.48,0,0,1,.165.454,2,2,0,0,0,.046.577.642.642,0,0,1-.455.333.989.989,0,0,1-.591-.061,1.064,1.064,0,0,1-.468-.378.6.6,0,0,1-.059-.591,1.263,1.263,0,0,1,.618-.228c.255-.03.5-.065.745-.106" transform="translate(-4164.688 -8762.48)" fill="#c4a258"/>
    <path id="Path_319" data-name="Path 319" d="M38.384,16.426a1.773,1.773,0,0,0-.333.758c-.059.3-.129.606-.212.909a2.4,2.4,0,0,0,1.077.288,4.308,4.308,0,0,0,1.122-.122,7.506,7.506,0,0,0,1.1-.362c.364-.152.709-.3,1.031-.441a11.389,11.389,0,0,0,1.332-.681c.426-.252.839-.48,1.244-.683a.339.339,0,0,1-.181.349,2.109,2.109,0,0,0-.362.287,1.73,1.73,0,0,1-.336.258.84.84,0,0,0-.3.317c-.223.162-.444.333-.668.516a6.754,6.754,0,0,1-.726.516,4.547,4.547,0,0,1-.939.681,5.317,5.317,0,0,1-1.287.529,3.682,3.682,0,0,1-1.319.123,1.518,1.518,0,0,1-1.06-.577,2.4,2.4,0,0,1-.4-1.076,5.128,5.128,0,0,1,0-1.35,10.827,10.827,0,0,1,1.366-2.576A5.9,5.9,0,0,1,40.659,12.3q.059.03.074,0c.012-.022.036-.03.077-.03a1.947,1.947,0,0,1,1.379.273,1.129,1.129,0,0,1,.349,1.212,7.949,7.949,0,0,1-1.379,1.818,4.017,4.017,0,0,1-2.2,1.031.8.8,0,0,1-.577-.181M39.173,15a9.176,9.176,0,0,0,1.379-.821,2.716,2.716,0,0,0,.955-1.09A7.086,7.086,0,0,0,39.173,15" transform="translate(-4158.952 -8761.988)" fill="#c4a258"/>
    <path id="Path_320" data-name="Path 320" d="M44.733,13.793a2.865,2.865,0,0,0,.406-.348,2.315,2.315,0,0,1,.5-.378,1.462,1.462,0,0,1,.576-.183.844.844,0,0,1,.609.212.415.415,0,0,1,.194.244,2.141,2.141,0,0,0,.139.333,4.522,4.522,0,0,1-.077,1.137,7.519,7.519,0,0,1-.273.955q-.167.452-.319.909a6.678,6.678,0,0,0-.242.97,3.567,3.567,0,0,0,1.137-.7c.333-.3.66-.612.984-.925a12.563,12.563,0,0,1,1.031-.894,3.792,3.792,0,0,1,1.276-.636.882.882,0,0,1,.6.394l.365.606a2.969,2.969,0,0,1-.032.713c-.042.212-.087.413-.136.606a5.523,5.523,0,0,0-.122.59,1.671,1.671,0,0,0,.046.667.267.267,0,0,0,.212.107.53.53,0,0,1,.242.075A6.536,6.536,0,0,0,54.07,17.7a12.009,12.009,0,0,0,1.864-1.061q.861-.607,1.637-1.258a15.885,15.885,0,0,1,1.56-1.168,5,5,0,0,1-.925,1.85,7.816,7.816,0,0,1-1.424,1.35,11.479,11.479,0,0,1-1.728,1.045q-.924.454-1.866.909a3.283,3.283,0,0,1-1.092,0,3.673,3.673,0,0,1-.908-.271,2.349,2.349,0,0,1-.652-1.289,6.532,6.532,0,0,1-.1-1.744,5.8,5.8,0,0,1-.654.454,5.991,5.991,0,0,0-.712.516,5.166,5.166,0,0,0-1.015,1.077,2.787,2.787,0,0,1-1.076.925,1.585,1.585,0,0,1-.547.151,1.843,1.843,0,0,1-.576-.03,1.415,1.415,0,0,1-.561-.925,3.952,3.952,0,0,1-.014-1.242,9.7,9.7,0,0,1,.273-1.3c.122-.435.222-.8.3-1.108a6.349,6.349,0,0,0-1.515,1.911q-.637,1.183-1.211,2.334c-.043.142-.109.329-.2.56a2.846,2.846,0,0,1-.32.607.549.549,0,0,1-.378.273c-.13.01-.245-.136-.348-.439a.956.956,0,0,1-.106-.317c-.03-.152-.055-.27-.078-.349A2.648,2.648,0,0,1,42,17.627a15.753,15.753,0,0,0,.664-1.47,14.707,14.707,0,0,0,.5-1.44c.132-.454.26-.883.378-1.289a1.022,1.022,0,0,1-.119-.393.453.453,0,0,1,.119-.394c0-.081.022-.122.062-.122a.752.752,0,0,1,.8.38,4.7,4.7,0,0,1,.32.893" transform="translate(-4156.65 -8761.854)" fill="#c4a258"/>
    <path id="Path_321" data-name="Path 321" d="M60.806,18.685c.932-.707,1.859-1.474,2.788-2.3a31.714,31.714,0,0,1,2.911-2.3,2.453,2.453,0,0,1,.438.151.47.47,0,0,1,.259.335,1.848,1.848,0,0,1-.683.847,4.365,4.365,0,0,0-.835.789c-.281.225-.562.461-.847.713s-.565.5-.85.742q-.879.7-1.712,1.425c-.555.486-1.106.989-1.651,1.515a44,44,0,0,1-.349,4.638q-.287,2.212-.712,4.455a48.753,48.753,0,0,1-1.486,5.822,19.7,19.7,0,0,1-2.394,4.941,10.608,10.608,0,0,1-.941,1.167,5.419,5.419,0,0,1-1.241,1,4.365,4.365,0,0,1-1.518.545A3.581,3.581,0,0,1,50.258,43a8.211,8.211,0,0,1-.939-.909,5.91,5.91,0,0,1-.742-1.077,4.881,4.881,0,0,1-.47-1.334,6.3,6.3,0,0,1-.09-1.682,8.159,8.159,0,0,1,.726-2.9q.635-1.409,1.213-2.682a29.775,29.775,0,0,1,2.028-3.592q1.155-1.744,2.443-3.349T57.064,22.4c.9-.98,1.773-1.914,2.621-2.8q.059-1.15.107-2.3c.03-.768.083-1.525.165-2.273a3.752,3.752,0,0,0-.712.547c-.233.222-.476.458-.729.71s-.5.507-.758.76a7.421,7.421,0,0,1-.771.681,5.7,5.7,0,0,1-.607.454,1.483,1.483,0,0,1-.606.274.908.908,0,0,1-.71-.229,3.787,3.787,0,0,1-.5-.529,2.821,2.821,0,0,1-.075-1.121,7.093,7.093,0,0,1,.228-1.045c.1-.333.212-.663.333-.986a9.135,9.135,0,0,0,.3-.971.99.99,0,0,1,.713.607,2.006,2.006,0,0,1,.043.955,5.007,5.007,0,0,1-.3,1.045c-.142.344-.254.635-.333.879a7.337,7.337,0,0,0,1.258-.774c.413-.312.834-.66,1.257-1.045a15.416,15.416,0,0,0,1.153-1.151,5.359,5.359,0,0,1,1.121-.97.48.48,0,0,1,.409-.061.649.649,0,0,1,.38.3A15.417,15.417,0,0,1,60.944,16a17.775,17.775,0,0,0-.138,2.682M53.078,29.567a18.153,18.153,0,0,0-1.26,2.153q-.589,1.181-1.2,2.456c-.223.484-.47,1.086-.744,1.8a11.322,11.322,0,0,0-.59,2.212,6.471,6.471,0,0,0,0,2.167,2.5,2.5,0,0,0,1,1.637,3.615,3.615,0,0,0,.941.059,3.774,3.774,0,0,0,.877-.151,8.242,8.242,0,0,0,2.38-2,13.02,13.02,0,0,0,1.682-2.7,21.574,21.574,0,0,0,1.183-3.168q.485-1.683.88-3.442.454-2.092.818-4.3a37.07,37.07,0,0,0,.455-4.577c0-.041-.012-.051-.032-.03q-1.7,1.909-3.334,3.8a38.137,38.137,0,0,0-3.06,4.077" transform="translate(-4153.547 -8760.963)" fill="#c4a258"/>
    <path id="Path_322" data-name="Path 322" d="M79.552,19.3a4.961,4.961,0,0,1-.879,1.909,7.988,7.988,0,0,1-1.334,1.456,5.736,5.736,0,0,1-.726.545,9.922,9.922,0,0,1-.91.515,5.874,5.874,0,0,1-1,.4,3.571,3.571,0,0,1-1,.151,2.252,2.252,0,0,1-1.124-.212,2.754,2.754,0,0,1-.832-.636,3.96,3.96,0,0,1-.591-.894c-.161-.333-.315-.673-.452-1.015a13.084,13.084,0,0,1-.76,1.226,6.225,6.225,0,0,1-1.108,1.244,2.855,2.855,0,0,1-1.347.665A1.748,1.748,0,0,1,66,24.117a3.632,3.632,0,0,1-.107-.41,1.215,1.215,0,0,0-.135-.38,16.116,16.116,0,0,1,.3-1.94,6.067,6.067,0,0,1,.638-1.711,2.957,2.957,0,0,1,1.121-1.138A2.882,2.882,0,0,1,69.64,18.3a2.626,2.626,0,0,1-.029.681,3.48,3.48,0,0,1-.154.561c-.059.162-.132.329-.212.5a.65.65,0,0,1-.423.348.9.9,0,0,1-.091-.636,1.426,1.426,0,0,0-.029-.667.486.486,0,0,0-.4.348,3.713,3.713,0,0,1-.212.531q-.363.787-.7,1.637a5.29,5.29,0,0,0-.333,1.941,3.95,3.95,0,0,0,.97-.683,8.269,8.269,0,0,0,.789-.879c.242-.315.476-.642.7-.986s.455-.677.7-1a25.832,25.832,0,0,1,.5-5.742q.563-2.714,1.29-5.26A46.571,46.571,0,0,1,74.43,2.383,9.689,9.689,0,0,1,74.96,1.4a1.836,1.836,0,0,1,.8-.712,1.524,1.524,0,0,1,.819.136,1.671,1.671,0,0,1,.515.439A4.26,4.26,0,0,1,77.2,3.035a17.851,17.851,0,0,1-.378,1.773Q76.34,6.659,75.84,8.4t-1.016,3.379q-.755,2.336-1.65,4.442t-1.8,4.078c.1.4.2.807.288,1.212a5.3,5.3,0,0,0,.378,1.121,1.23,1.23,0,0,0,.681.471,2.263,2.263,0,0,0,.865.045,4.165,4.165,0,0,0,.893-.228c.291-.112.561-.228.8-.349a10.27,10.27,0,0,0,2.317-1.56q1.076-.957,1.956-1.714m-7.971-2.7c-.042.02-.052.036-.032.045s.032,0,.032-.045l.09-.12a12.112,12.112,0,0,0,.741-1.667c.215-.586.431-1.173.652-1.759q.637-1.729,1.258-3.533A36.906,36.906,0,0,0,75.4,5.746c.08-.32.159-.635.244-.938s.159-.626.241-.971a8.968,8.968,0,0,0,.258-.954,2.5,2.5,0,0,0,.015-.984,1.236,1.236,0,0,0-.6.622c-.122.271-.244.549-.365.832a37.114,37.114,0,0,0-1.622,4.335q-.681,2.244-1.287,4.79c-.161.665-.3,1.354-.409,2.06s-.207,1.4-.287,2.062m7.971,2.7c0-.041.01-.055.03-.045s.01.025-.03.045" transform="translate(-4144.947 -8767.697)" fill="#c4a258"/>
    <path id="Path_323" data-name="Path 323" d="M82.7.12a1.388,1.388,0,0,1,1.154.59,2.758,2.758,0,0,1,.393,1.258A5.31,5.31,0,0,1,84.136,3.5c-.11.535-.228,1.006-.346,1.409q-.581,1.851-1.245,3.623t-1.364,3.41q-1.059,2.364-2.06,4.548a21.982,21.982,0,0,1-2.305,3.94c-.141.122-.283.232-.423.333a3.492,3.492,0,0,0-.425.362,7.849,7.849,0,0,0-.228,1.2,9,9,0,0,0-.059,1.289,4.5,4.5,0,0,0,.181,1.2,2.308,2.308,0,0,0,.5.925,5.3,5.3,0,0,0,1.3-.5,9.625,9.625,0,0,0,1.09-.7,12.577,12.577,0,0,0,.986-.8q.47-.424.986-.819a8.066,8.066,0,0,1,.925-.85,7.936,7.936,0,0,0,.925-.848,4.489,4.489,0,0,0,.952-.848,3.2,3.2,0,0,1,1.016-.789,3.737,3.737,0,0,1-.606,1.106c-.262.333-.536.673-.818,1.015s-.551.687-.8,1.032a10.484,10.484,0,0,1-.8.97,8.28,8.28,0,0,1-.863.909q-.441.394-1.016.818c-.323.244-.687.5-1.089.789a2.177,2.177,0,0,1-1.366.394,1.92,1.92,0,0,1-1-.288,3.205,3.205,0,0,1-.848-.726,3.676,3.676,0,0,1-.591-1.016,3.718,3.718,0,0,1-.26-1.182,4.354,4.354,0,0,1,.138-1.061,2.922,2.922,0,0,0,.075-1.061.821.821,0,0,0-.136-.333.447.447,0,0,1-.077-.333c.022-.142.067-.216.138-.228s.125-.1.167-.257a56.377,56.377,0,0,1,1.182-5.715q.728-2.773,1.608-5.38Q78,7.759,78.5,6.516a17.967,17.967,0,0,1,1.138-2.334c.426-.728.858-1.445,1.3-2.153A6.628,6.628,0,0,1,82.576.24c.039-.081.08-.12.119-.12M80.09,11c.283-.647.574-1.293.88-1.94a18.771,18.771,0,0,0,.818-2.092l.879-2.652A7.513,7.513,0,0,0,83,1.362q0-.061-.03-.061a12.975,12.975,0,0,0-1.334,1.773Q81.061,4,80.513,5a27.737,27.737,0,0,0-1.835,4.168q-.77,2.227-1.377,4.593-.274,1.211-.576,2.409a19.271,19.271,0,0,0-.455,2.47q1.063-1.818,2-3.714T80.09,11" transform="translate(-4140.76 -8767.949)" fill="#c4a258"/>
    <path id="Path_324" data-name="Path 324" d="M85.07,15.294a1.086,1.086,0,0,0,.423-.135.753.753,0,0,1,.518-.046,1.009,1.009,0,0,1,.38.681,3.3,3.3,0,0,1-.032.864c-.051.3-.112.612-.181.925a2.278,2.278,0,0,0-.045.864,6.3,6.3,0,0,0,2.062-.62,10.178,10.178,0,0,0,1.682-1.093,16.593,16.593,0,0,0,1.456-1.318c.452-.464.915-.9,1.377-1.3a1.325,1.325,0,0,1-.045.667c-.071.2-.148.415-.228.636A13.555,13.555,0,0,1,90,17.933a10.709,10.709,0,0,1-3.291,1.727,1.321,1.321,0,0,1-.848-.242,1.371,1.371,0,0,1-.439-.651,2.912,2.912,0,0,1-.136-.925,9.579,9.579,0,0,1,.061-1.063,4.443,4.443,0,0,0-1.108.715q-.5.439-1,.909t-1.05.894a3.743,3.743,0,0,1-1.271.636,2.191,2.191,0,0,1-1.182-.242,1.431,1.431,0,0,1-.228-.865,3.744,3.744,0,0,1,.168-1,5.013,5.013,0,0,1,.393-.955c.161-.3.3-.567.423-.789a11.206,11.206,0,0,1,.88-1.258,12.564,12.564,0,0,0,.789-1.076,1.729,1.729,0,0,1,.636-.439,2.948,2.948,0,0,1,.816-.213,1.881,1.881,0,0,1,.819.091,1.572,1.572,0,0,1,.667.439,1.257,1.257,0,0,1,.244.8,1.4,1.4,0,0,1-.274.864m-.879-.909a4.749,4.749,0,0,0-1.228.7,5.315,5.315,0,0,0-.939.97,6.717,6.717,0,0,0-.713,1.2q-.3.652-.576,1.348a6.768,6.768,0,0,0,1.94-1.395q.82-.846,1.728-1.637a.255.255,0,0,1-.135-.228,1.727,1.727,0,0,1,0-.346c.009-.122.013-.238.013-.349a.344.344,0,0,0-.09-.258" transform="translate(-4138.257 -8761.587)" fill="#c4a258"/>
    <path id="Path_325" data-name="Path 325" d="M103.29,5.949a5.711,5.711,0,0,0-1.818,1.485q-.728.909-1.456,1.85a20.619,20.619,0,0,0-2.2,4.213,38.271,38.271,0,0,0-1.561,4.9,34.508,34.508,0,0,0-.834,4.652,14.932,14.932,0,0,0-.046,3.456,7.673,7.673,0,0,0,.122.789,5.853,5.853,0,0,0,.242.864,2.522,2.522,0,0,0,.38.7.784.784,0,0,0,.558.319,1.036,1.036,0,0,0,.594-.136,4.837,4.837,0,0,0,.636-.409,6,6,0,0,0,.576-.5c.171-.17.306-.307.409-.407a13.812,13.812,0,0,0,2.3-3.245q.942-1.82,1.73-3.607c.039-.222.081-.433.119-.636s.084-.4.125-.606a1.068,1.068,0,0,1,.62.773,3.436,3.436,0,0,1,.074,1.167,4.626,4.626,0,0,1-.454,1.651c-.264.557-.525,1.076-.789,1.561q-.694,1.272-1.393,2.411A9.292,9.292,0,0,1,99.563,29.2c-.345.181-.673.364-.986.547a2.238,2.238,0,0,1-1.229.241,3.263,3.263,0,0,1-1.68-.47A2.839,2.839,0,0,1,94.53,28.41a5.481,5.481,0,0,1-.484-2.031,18.559,18.559,0,0,1,.032-3.168,37.424,37.424,0,0,1,.545-3.879,36.732,36.732,0,0,1,1.045-4.168,32.849,32.849,0,0,1,1.547-4.03,20.591,20.591,0,0,1,2.014-3.488c.345-.462.693-.9,1.047-1.3A5.172,5.172,0,0,1,101.5,5.313q.333-.122.665-.228a5.338,5.338,0,0,1,.667-.167A2.093,2.093,0,0,1,103.5,4.9a1.646,1.646,0,0,1,.667.258,1.975,1.975,0,0,1,.819,1,3.813,3.813,0,0,1,.259,1.244,2.261,2.261,0,0,1-.2,1.045c-.142.293-.325.42-.545.378a.357.357,0,0,1-.244-.2,2.692,2.692,0,0,1-.165-.394c-.051-.152-.1-.3-.138-.455s-.07-.277-.091-.378c-.059-.344-.12-.632-.18-.865a1.119,1.119,0,0,0-.4-.59" transform="translate(-4131.239 -8765.807)" fill="#c4a258"/>
    <path id="Path_326" data-name="Path 326" d="M103.219,14.624a.974.974,0,0,1,.638.316,1.576,1.576,0,0,1,.3.623c0,.061-.046.086-.138.075a.191.191,0,0,0-.2.075q-.485.942-.925,2a5.548,5.548,0,0,0-.348,2.486,2.257,2.257,0,0,0,1.44-.107c.455-.193.864-.378,1.229-.561.383-.2.751-.409,1.1-.62a7.12,7.12,0,0,0,1.015-.742c.525-.344,1.048-.687,1.561-1.031a17.258,17.258,0,0,1,1.653-.97,3.328,3.328,0,0,0,.56-.32.827.827,0,0,1,.563-.164,3.4,3.4,0,0,1-.818.832,7.231,7.231,0,0,0-.909.773c-.407.365-.839.744-1.306,1.138s-.95.793-1.454,1.2a17.933,17.933,0,0,1-1.469,1.092,3.721,3.721,0,0,1-1.9.576,2.264,2.264,0,0,1-2.515-1.576,4.237,4.237,0,0,1,.016-.8c.03-.232.065-.47.106-.712.12-.3.232-.616.332-.941s.209-.647.319-.968a4.867,4.867,0,0,1,.41-.9,2.286,2.286,0,0,1,.606-.681Zm2.243-4.759a1.2,1.2,0,0,1,.077.97.881.881,0,0,1-.62.636,2.507,2.507,0,0,1-.576-.226.726.726,0,0,1-.335-.471c.181-.222.368-.435.561-.636a1.105,1.105,0,0,1,.893-.273" transform="translate(-4127.701 -8763.119)" fill="#c4a258"/>
    <path id="Path_327" data-name="Path 327" d="M108.344,16.426a1.754,1.754,0,0,0-.332.758c-.061.3-.13.606-.213.909a2.4,2.4,0,0,0,1.076.288A4.3,4.3,0,0,0,110,18.26a7.325,7.325,0,0,0,1.1-.362q.548-.228,1.032-.441a11.643,11.643,0,0,0,1.334-.681q.637-.378,1.242-.683a.34.34,0,0,1-.18.349,2.194,2.194,0,0,0-.365.287,1.639,1.639,0,0,1-.335.258.851.851,0,0,0-.3.317c-.223.162-.444.333-.668.516a6.474,6.474,0,0,1-.726.516,4.508,4.508,0,0,1-.939.681,5.269,5.269,0,0,1-1.287.529,3.682,3.682,0,0,1-1.319.123,1.518,1.518,0,0,1-1.06-.577,2.365,2.365,0,0,1-.394-1.076,4.892,4.892,0,0,1,0-1.35,10.67,10.67,0,0,1,1.364-2.576,5.91,5.91,0,0,1,2.121-1.788c.041.02.065.02.077,0s.035-.03.074-.03a1.953,1.953,0,0,1,1.38.273,1.128,1.128,0,0,1,.346,1.212,7.867,7.867,0,0,1-1.379,1.818,4.022,4.022,0,0,1-2.2,1.031.793.793,0,0,1-.577-.181M109.133,15a9.1,9.1,0,0,0,1.379-.821,2.728,2.728,0,0,0,.955-1.09A7.071,7.071,0,0,0,109.133,15" transform="translate(-4124.327 -8761.988)" fill="#c4a258"/>
    <path id="Path_328" data-name="Path 328" d="M115.03,20.907c.362-.283.768-.586,1.211-.909a14.28,14.28,0,0,1,1.367-.88,3.4,3.4,0,0,1,1.076-.181,2.294,2.294,0,0,1,.938.181,1.631,1.631,0,0,1,.667.531,1.463,1.463,0,0,1,.258.894,5.031,5.031,0,0,1-.258,1.789,8.384,8.384,0,0,1-.726,1.59,10.546,10.546,0,0,1-.955,1.364c-.344.415-.645.794-.909,1.137a2.591,2.591,0,0,0-.591.365,2.688,2.688,0,0,1-.591.362,2.167,2.167,0,0,1-1.727-.968A3.305,3.305,0,0,1,115,24.969q.213-.546.454-1.031c.162-.283.335-.58.516-.894a1.835,1.835,0,0,1,.728-.712c-.242.465-.494.984-.76,1.561a4.411,4.411,0,0,0-.332,2.076,5.167,5.167,0,0,0,1.287-1.047,8.247,8.247,0,0,0,1.047-1.44,9.876,9.876,0,0,0,.744-1.712,5.77,5.77,0,0,0,.258-2.106,5.73,5.73,0,0,0-1.26.606,6.356,6.356,0,0,0-1.031.834,11.5,11.5,0,0,0-.879.986q-.409.515-.834,1.029-.424,1.427-.864,2.865a12.072,12.072,0,0,0-.471,3.32,1.3,1.3,0,0,1-.939-.2,7,7,0,0,1-.635-.561.567.567,0,0,1-.059-.258.388.388,0,0,0-.062-.226,7.836,7.836,0,0,1,.152-1.879c.119-.568.252-1.142.394-1.728q.241-.942.409-1.819t.38-1.759c-.062-.1-.193-.141-.4-.122a.869.869,0,0,1-.484-.061,2.052,2.052,0,0,1,.622-.56,2.043,2.043,0,0,0,.619-.561q.518-2.668,1.109-5.289t1.347-5.138q.761-2.488,1.7-4.774A15.578,15.578,0,0,1,120.184.294c.159-.081.323-.157.484-.228a1.247,1.247,0,0,1,.667-.045A2.222,2.222,0,0,1,122.547,1.6a20.5,20.5,0,0,1-.364,2.894c-.181.9-.4,1.763-.651,2.592s-.536,1.627-.85,2.395-.62,1.545-.925,2.334a42.592,42.592,0,0,1-2.076,4.426,33.449,33.449,0,0,1-2.53,3.969c-.02.12-.036.244-.048.364a1.11,1.11,0,0,1-.074.333m4-11.032q.818-2,1.515-4.153a19.874,19.874,0,0,0,.879-4.7c-.02,0-.049-.02-.09-.061a.028.028,0,0,0-.032-.03A17.316,17.316,0,0,0,119.152,4.4a34.974,34.974,0,0,0-1.6,4.046q-.7,2.122-1.213,4.41c-.345,1.525-.665,3.046-.971,4.562a27.826,27.826,0,0,0,1.97-3.653q.85-1.894,1.7-3.894" transform="translate(-4122.16 -8768.004)" fill="#c4a258"/>
    <path id="Path_329" data-name="Path 329" d="M120.2,14.624a.964.964,0,0,1,.636.316,1.6,1.6,0,0,1,.3.623c0,.061-.048.086-.138.075a.191.191,0,0,0-.2.075q-.485.942-.925,2a5.547,5.547,0,0,0-.349,2.486,2.26,2.26,0,0,0,1.441-.107c.454-.193.864-.378,1.228-.561.384-.2.752-.409,1.106-.62a7.12,7.12,0,0,0,1.015-.742q.789-.515,1.563-1.031a17.229,17.229,0,0,1,1.651-.97,3.327,3.327,0,0,0,.56-.32.829.829,0,0,1,.563-.164,3.434,3.434,0,0,1-.819.832,7.442,7.442,0,0,0-.909.773q-.609.548-1.3,1.138t-1.456,1.2a17.712,17.712,0,0,1-1.47,1.092,3.707,3.707,0,0,1-1.895.576,2.26,2.26,0,0,1-2.514-1.576,4.141,4.141,0,0,1,.013-.8c.032-.232.065-.47.107-.712q.18-.454.333-.941c.1-.322.207-.647.318-.968a4.769,4.769,0,0,1,.409-.9,2.306,2.306,0,0,1,.606-.681Zm2.243-4.759a1.2,1.2,0,0,1,.078.97.889.889,0,0,1-.623.636,2.617,2.617,0,0,1-.576-.226.726.726,0,0,1-.335-.471c.183-.222.37-.435.562-.636a1.105,1.105,0,0,1,.893-.273" transform="translate(-4119.294 -8763.119)" fill="#c4a258"/>
    <path id="Path_330" data-name="Path 330" d="M125.323,16.426a1.757,1.757,0,0,0-.335.758q-.089.454-.213.909a2.407,2.407,0,0,0,1.077.288,4.3,4.3,0,0,0,1.122-.122,7.4,7.4,0,0,0,1.1-.362c.364-.152.709-.3,1.032-.441a11.409,11.409,0,0,0,1.334-.681q.635-.378,1.242-.683a.343.343,0,0,1-.181.349,2.108,2.108,0,0,0-.362.287,1.766,1.766,0,0,1-.335.258.843.843,0,0,0-.3.317c-.223.162-.445.333-.668.516a6.615,6.615,0,0,1-.726.516,4.613,4.613,0,0,1-.938.681,5.338,5.338,0,0,1-1.29.529,3.673,3.673,0,0,1-1.319.123,1.521,1.521,0,0,1-1.06-.577,2.381,2.381,0,0,1-.394-1.076,5.007,5.007,0,0,1,0-1.35,10.821,10.821,0,0,1,1.363-2.576,5.927,5.927,0,0,1,2.122-1.788c.041.02.067.02.077,0s.035-.03.077-.03a1.945,1.945,0,0,1,1.377.273,1.129,1.129,0,0,1,.349,1.212,7.955,7.955,0,0,1-1.38,1.818,4.012,4.012,0,0,1-2.2,1.031.788.788,0,0,1-.574-.181M126.108,15a9.189,9.189,0,0,0,1.38-.821,2.723,2.723,0,0,0,.954-1.09A7.1,7.1,0,0,0,126.108,15" transform="translate(-4116.691 -8761.988)" fill="#c4a258"/>
    <rect id="Rectangle_78" data-name="Rectangle 78" width="192" height="50.244" transform="translate(-4177 -8768.003)" fill="none"/>
  </g>
</svg>
